STARTFONT 2.1
COMMENT
COMMENT Converted from OpenType font "Q:\font stuff\winfont\Thong.ttf" by "otf2bdf 3.0".
COMMENT
FONT -FreeType-Thong-Medium-R-Normal--96-960-72-72-P-309-ISO10646-1
SIZE 96 72 72
FONTBOUNDINGBOX 108 96 -8 -18
STARTPROPERTIES 19
FOUNDRY "FreeType"
FAMILY_NAME "Thong"
WEIGHT_NAME "Medium"
SLANT "R"
SETWIDTH_NAME "Normal"
ADD_STYLE_NAME ""
PIXEL_SIZE 96
POINT_SIZE 960
RESOLUTION_X 72
RESOLUTION_Y 72
SPACING "P"
AVERAGE_WIDTH 309
CHARSET_REGISTRY "ISO10646"
CHARSET_ENCODING "1"
FONT_ASCENT 77
FONT_DESCENT 18
COPYRIGHT "© Graham Meade. All rights reserved. gem@c031.aone.net.au"
_OTF_FONTFILE "Q:\font stuff\winfont\Thong.ttf"
_OTF_PSNAME "Thong"
ENDPROPERTIES
CHARS 207
STARTCHAR 0020
ENCODING 32
SWIDTH 354 0
DWIDTH 34 0
BBX 0 0 0 0
BITMAP
ENDCHAR
STARTCHAR 0021
ENCODING 33
SWIDTH 83 0
DWIDTH 8 0
BBX 3 62 2 0
BITMAP
E0
E0
E0
E0
E0
E0
E0
E0
E0
E0
E0
E0
E0
E0
E0
E0
E0
E0
E0
E0
E0
E0
E0
E0
E0
E0
E0
E0
E0
E0
E0
E0
E0
E0
E0
E0
E0
E0
E0
E0
E0
E0
E0
E0
E0
E0
E0
E0
E0
00
00
00
00
00
00
00
00
00
00
C0
E0
C0
ENDCHAR
STARTCHAR 0022
ENCODING 34
SWIDTH 145 0
DWIDTH 14 0
BBX 9 14 2 48
BITMAP
E380
E380
E380
E380
E380
E380
E380
E380
E380
E380
E380
E380
E380
E380
ENDCHAR
STARTCHAR 0023
ENCODING 35
SWIDTH 489 0
DWIDTH 47 0
BBX 42 42 2 11
BITMAP
00E00001C000
00F80007C000
00FC000FC000
003E001F0000
001E003C0000
000F00780000
000700700000
000380700000
E003807001C0
E003807003C0
E00380700380
F00380700780
780380700780
3E0380701F00
1FFFFFFFFE00
0FFFFFFFFC00
03FFFFFFF000
000380700000
000380700000
000380700000
000380700000
000380700000
000380700000
000380700000
000380700000
03FFFFFFE000
0FFFFFFFFC00
1FFFFFFFFE00
3E0380701F00
780380700700
F00380700780
E00380700380
E003807003C0
E003807001C0
000780700000
000700700000
000F00780000
000F003C0000
003E001F0000
00FC000FC000
00F80007C000
00E00001C000
ENDCHAR
STARTCHAR 0024
ENCODING 36
SWIDTH 416 0
DWIDTH 40 0
BBX 36 80 2 -9
BITMAP
03FFFFF800
03FFFFF800
03FFFFF800
00F803C000
003C078000
001C0F0000
001C0E0000
000E0E0000
000E0E0000
001FFE0000
00FFFFC000
01FFFFF000
07EE0FFC00
0F8E0E3E00
1F0E0E1F00
1C0E0E0780
3C0E0E0380
780E0E01C0
700E0E01E0
F00E0E00E0
E00E0E00E0
E00E0E00E0
E00E0E0070
E00E0E0070
E00E0E0000
E00E0E0000
E00E0E0000
E00E0E0000
E00E0E0000
700E0E0000
700E0E0000
780E0E0000
3C0E0E0000
1E0E0E0000
1F0E0E0000
0FCE0E0000
07FE0E0000
01FFFF0000
00FFFFE000
001FFFF800
000E0EFC00
000E0E3E00
000E0E1F00
000E0E0780
000E0E03C0
000E0E03C0
000E0E01E0
000E0E01E0
000E0E00E0
000E0E00E0
000E0E00F0
000E0E00F0
000E0E00F0
000E0E00F0
000E0E00F0
E00E0E00F0
E00E0E00F0
E00E0E00F0
E00E0E00E0
E00E0E00E0
700E0E01E0
700E0E01E0
780E0E03C0
3C0E0E07C0
1E0E0E0F80
1F0E0E1F00
0FCE0E7E00
07FE0FFC00
03FFFFF800
00FFFFE000
001FFF0000
000E0E0000
000E0E0000
001C0E0000
001C070000
003C078000
00F803C000
03FFFFF800
03FFFFF800
03FFFFF800
ENDCHAR
STARTCHAR 0025
ENCODING 37
SWIDTH 812 0
DWIDTH 78 0
BBX 73 62 2 0
BITMAP
001FE00000001E000000
00FFFC0000001C000000
01FFFF0000003C000000
07F01F80000038000000
0F8007C0000078000000
1F0001E00000F0000000
1E0000F00000E0000000
3C0000780001E0000000
780000380001C0000000
7000003C0003C0000000
7000001C000380000000
E000001C000700000000
E000001C000F00000000
E000000E000E00000000
E000000E001E00000000
E000000E001C00000000
E000000E003C00000000
E000000E007800000000
E000001E007000000000
E000001C00F000000000
F000001C00E000000000
7000003C01E000000000
7800003801C000000000
3C00007803C000000000
3E0000F0078000000000
1F0001E0070000000000
0F8007C00F0000000000
07F01F800E0000000000
01FFFF001E0000000000
00FFFC001C0000000000
001FF000380000000000
00000000780007F80000
0000000070003FFF0000
00000000F000FFFFC000
00000000E001FC07E000
00000001E003E001F000
00000003C007C0007800
00000003800F80003C00
00000007800F00001E00
00000007001E00000E00
0000000F001C00000F00
0000000E003C00000700
0000001E003800000700
0000003C003800000700
00000038003800000380
00000078003800000380
00000070003800000380
000000F0003800000380
000001E0003800000380
000001C0003800000700
000003C0003800000700
00000380003C00000700
00000780001C00000F00
00000700001E00000E00
00000F00000F00001E00
00001E00000780003C00
00001C000007C0007800
00003C000003E001F000
000038000001FC07E000
0000780000007FFFC000
0000700000003FFF0000
0000E000000007F80000
ENDCHAR
STARTCHAR 0026
ENCODING 38
SWIDTH 447 0
DWIDTH 43 0
BBX 38 64 2 -2
BITMAP
0007F80000
001FFF0000
007FFFC000
01FC07E000
03E001F000
07C0007800
0780003C00
0F00001E00
1E00000E00
1C00000F00
1C00000700
3800000700
3800000700
3800000380
3800000380
3800000380
3800000380
3800000380
3800000780
3800000700
3C00000700
1C00000F00
1E00000E00
0F00001E00
0F80003C00
07C0007800
03E001F000
01FC07E000
00FFFFC000
007FFF0000
01FFF80000
03F0000000
07C0000000
0F00000000
1E00000000
3C00000000
3800000000
7000000000
7000000000
E000000000
E000000000
E000000000
E000000000
E000000000
E000000000
E000000000
E000000000
E000000038
E000000038
E000000078
E000000070
F000000070
70000000F0
78000000E0
38000001E0
3C000003C0
1F000007C0
0F80001FE0
07F0007FE0
01FFFFFCF0
00FFFFF070
001FFF8078
0000000038
000000003C
ENDCHAR
STARTCHAR 0027
ENCODING 39
SWIDTH 83 0
DWIDTH 8 0
BBX 3 14 2 48
BITMAP
E0
E0
E0
E0
E0
E0
E0
E0
E0
E0
E0
E0
E0
E0
ENDCHAR
STARTCHAR 0028
ENCODING 40
SWIDTH 208 0
DWIDTH 20 0
BBX 15 74 2 -6
BITMAP
001E
007E
01FE
07F0
0FC0
1F00
1E00
3C00
7800
7000
7000
E000
E000
E000
E000
E000
E000
E000
E000
E000
E000
E000
E000
E000
E000
E000
E000
E000
E000
E000
E000
E000
E000
E000
E000
E000
E000
E000
E000
E000
E000
E000
E000
E000
E000
E000
E000
E000
E000
E000
E000
E000
E000
E000
E000
E000
E000
E000
E000
E000
E000
E000
E000
F000
7000
7800
3C00
3E00
1F00
0F80
07F0
01FE
00FE
001E
ENDCHAR
STARTCHAR 0029
ENCODING 41
SWIDTH 208 0
DWIDTH 20 0
BBX 15 74 2 -6
BITMAP
F000
FC00
FF00
1FC0
07E0
01F0
00F0
0078
003C
001C
001C
000E
000E
000E
000E
000E
000E
000E
000E
000E
000E
000E
000E
000E
000E
000E
000E
000E
000E
000E
000E
000E
000E
000E
000E
000E
000E
000E
000E
000E
000E
000E
000E
000E
000E
000E
000E
000E
000E
000E
000E
000E
000E
000E
000E
000E
000E
000E
000E
000E
000E
000E
000E
001E
001C
003C
0078
00F8
01F0
03E0
1FC0
FF00
FE00
F000
ENDCHAR
STARTCHAR 002A
ENCODING 42
SWIDTH 312 0
DWIDTH 30 0
BBX 25 25 2 36
BITMAP
1C007800
1E007000
0E00E000
0701E000
0781C000
0383C000
03C38000
01C78000
01E70000
00EF0000
007E0000
FFFFFF80
FFFFFF80
FFFFFF80
00FE0000
00EE0000
01EF0000
01C70000
03C38000
0383C000
0701C000
0F01E000
0E00E000
1E00F000
1C007800
ENDCHAR
STARTCHAR 002B
ENCODING 43
SWIDTH 468 0
DWIDTH 45 0
BBX 41 40 2 11
BITMAP
000700F00000
0007C3F00000
0007F7F00000
0001FF800000
00007F000000
00003E000000
00003C000000
00001C000000
00001C000000
00001C000000
00001C000000
00001C000000
E0001C000380
E0001C000380
E0001C000700
F0001C000700
78001C000F00
3E001C003E00
3FFFFFFFFC00
0FFFFFFFF800
3FFFFFFFFC00
3E001C003E00
78001C000F00
F0001C000700
E0001C000700
E0001C000380
E0001C000380
00001C000000
00001C000000
00001C000000
00001C000000
00001C000000
00003C000000
00003C000000
00003E000000
00007F000000
0001F7800000
0007E7F00000
0007C1F00000
000700700000
ENDCHAR
STARTCHAR 002C
ENCODING 44
SWIDTH 125 0
DWIDTH 12 0
BBX 7 14 2 -8
BITMAP
78
F8
FC
FC
FC
7E
1E
1C
1C
3C
78
F8
70
40
ENDCHAR
STARTCHAR 002D
ENCODING 45
SWIDTH 468 0
DWIDTH 45 0
BBX 40 16 2 23
BITMAP
E000000007
E000000007
E00000000F
F00000000E
780000001E
7C0000007C
3FFFFFFFF8
1FFFFFFFF0
1FFFFFFFF0
3E00000078
780000003C
700000001E
F00000000E
E00000000E
E000000007
E000000007
ENDCHAR
STARTCHAR 002E
ENCODING 46
SWIDTH 104 0
DWIDTH 10 0
BBX 5 6 2 0
BITMAP
F0
F8
F8
F8
F8
F0
ENDCHAR
STARTCHAR 002F
ENCODING 47
SWIDTH 468 0
DWIDTH 45 0
BBX 39 62 2 1
BITMAP
000000001E
000000001E
000000003C
000000003C
0000000078
00000000F0
00000000F0
00000001E0
00000001E0
00000003C0
0000000380
0000000780
0000000F00
0000000F00
0000001E00
0000001E00
0000003C00
0000003800
0000007800
000000F000
000000F000
000001E000
000001C000
000003C000
0000078000
0000078000
00000F0000
00000E0000
00001E0000
00001C0000
00003C0000
0000780000
0000700000
0000F00000
0000E00000
0001E00000
0001C00000
0003C00000
0007800000
0007000000
000F000000
000E000000
001E000000
003C000000
0038000000
0078000000
0070000000
00F0000000
00E0000000
01C0000000
03C0000000
0380000000
0780000000
0700000000
0F00000000
0E00000000
1C00000000
3C00000000
3800000000
7800000000
7000000000
E000000000
ENDCHAR
STARTCHAR 0030
ENCODING 48
SWIDTH 385 0
DWIDTH 37 0
BBX 33 62 2 0
BITMAP
001FF80000
00FFFF0000
01FFFFC000
07F007E000
0F8001F000
1F00007800
1E00003C00
3C00001E00
7800000E00
7000000F00
7000000700
E000000700
E000000700
E000000380
E000000380
E000000380
E000000380
E000000380
E000000380
E000000780
E000000780
E000000780
E000000F80
E000000F80
E000001F80
E000003F80
E000007B80
E00001F380
E00007E380
E01FFFC380
E0FFFF0380
E3FFF80380
E7F0000380
EF80000380
FF00000380
FE00000380
FC00000380
F800000380
F000000380
F000000380
E000000380
E000000380
E000000380
E000000380
E000000380
E000000380
E000000380
E000000380
E000000380
E000000780
E000000700
7000000700
7000000F00
7800000E00
3C00001E00
1E00003C00
1F00007800
0F8001F000
07F007E000
01FFFFC000
007FFF0000
001FF80000
ENDCHAR
STARTCHAR 0031
ENCODING 49
SWIDTH 114 0
DWIDTH 11 0
BBX 7 62 2 0
BITMAP
08
08
18
38
38
38
38
38
38
38
38
38
38
38
38
38
38
38
38
38
38
38
38
38
38
38
38
38
38
38
38
38
38
38
38
38
38
38
38
38
38
38
38
38
38
38
38
38
38
38
38
38
38
38
38
38
38
38
38
FE
FE
FE
ENDCHAR
STARTCHAR 0032
ENCODING 50
SWIDTH 385 0
DWIDTH 37 0
BBX 33 62 2 0
BITMAP
001FF80000
00FFFF0000
01FFFFC000
07F007E000
0F8001F000
1F00007800
1E00003C00
3C00001E00
7800000E00
7000000F00
7000000700
E000000700
E000000700
E000000380
E000000380
E000000380
0000000380
0000000380
0000000380
0000000380
0000000380
0000000380
0000000380
0000000700
0000000700
0000000700
0000000F00
0000000E00
0000001E00
0000003C00
0000007800
000001F000
000007E000
001FFFC000
00FFFF0000
03FFF80000
07F0000000
0F80000000
1F00000000
3E00000000
3C00000000
7800000000
7000000000
F000000000
E000000000
E000000000
E000000000
E000000000
E000000000
E000000000
E000000000
E000000000
E000000000
E000000000
E000000000
E000000000
E000000000
E000000000
E000000000
FFFFFFFF80
FFFFFFFF80
FFFFFFFF80
ENDCHAR
STARTCHAR 0033
ENCODING 51
SWIDTH 385 0
DWIDTH 37 0
BBX 33 62 2 0
BITMAP
FFFFF80000
FFFFFF0000
FFFFFFC000
000007E000
000001F000
0000007800
0000003C00
0000001E00
0000000E00
0000000F00
0000000700
0000000700
0000000700
0000000380
0000000380
0000000380
0000000380
0000000380
0000000700
0000000700
0000000700
0000000F00
0000000E00
0000001E00
0000003C00
0000007800
000001F000
000007E000
001FFFC000
001FFF0000
001FFFC000
000007E000
000001F000
0000007800
0000003C00
0000001E00
0000000E00
0000000F00
0000000700
0000000700
0000000700
0000000380
0000000380
0000000380
0000000380
0000000380
0000000380
E000000380
E000000380
E000000780
F000000700
7000000700
7000000F00
7800000E00
3C00001E00
1E00003C00
1F00007800
0F8001F000
07F007E000
01FFFFC000
00FFFF0000
001FF80000
ENDCHAR
STARTCHAR 0034
ENCODING 52
SWIDTH 489 0
DWIDTH 47 0
BBX 42 62 2 0
BITMAP
000070000000
0000E0000000
0000E0000000
0001E0000000
0001C0000000
0001C0000000
0003C0000000
000380000000
000380000000
000700000000
000700000000
000F00000000
000E00000000
000E00000000
001E00000000
001C00000000
001C00000000
003800000000
003800000000
007800000000
007000000000
007000000000
00F000000000
00E000000000
00E000000000
01C000000000
01C000000000
03C000000000
038001C00000
038001C00000
078001C00000
070001C00000
070001C00000
0E0001C00000
0E0001C00000
1E0001C00000
1C0001C00000
1C7F81C00000
3FFFF1C00000
3FFFF9C00180
3F80FDC003C0
7E001FC00F80
78000FC03F00
F00007FFFE00
E00001FFF800
E00001FFC000
000001C00000
000001C00000
000001C00000
000001C00000
000001C00000
000001C00000
000001C00000
000001C00000
000001C00000
000001C00000
000001C00000
000001C00000
000001C00000
000001C00000
000001C00000
000001C00000
ENDCHAR
STARTCHAR 0035
ENCODING 53
SWIDTH 385 0
DWIDTH 37 0
BBX 33 62 2 0
BITMAP
FFFFFFFF80
FFFFFFFF80
FFFFFFFF80
E000000000
E000000000
E000000000
E000000000
E000000000
E000000000
E000000000
E000000000
E000000000
E000000000
E000000000
E000000000
E000000000
E000000000
E000000000
E000000000
E000000000
E000000000
E000000000
FFFFF80000
FFFFFF0000
FFFFFFC000
000007E000
000001F000
0000007800
0000003C00
0000001E00
0000000E00
0000000F00
0000000700
0000000700
0000000700
0000000380
0000000380
0000000380
0000000380
0000000380
0000000380
0000000380
0000000380
0000000380
0000000380
0000000380
0000000380
E000000380
E000000380
E000000780
E000000700
7000000700
7000000F00
7800000E00
3C00001E00
1E00003C00
1F00007800
0F8001F000
07F007E000
01FFFFC000
00FFFF0000
001FF80000
ENDCHAR
STARTCHAR 0036
ENCODING 54
SWIDTH 416 0
DWIDTH 40 0
BBX 36 62 2 0
BITMAP
001FFF0000
00FFFFE000
01FFFFF800
07F000FC00
0F80003E00
1F00000F00
3E00000780
3C000003C0
78000001C0
70000001E0
F0000000E0
E0000000E0
E0000000E0
E000000070
E000000070
E000000070
E000000000
E000000000
E000000000
E000000000
E000000000
E000000000
E000000000
F000000000
F800000000
FE00000000
FFFFFF0000
FFFFFFE000
E3FFFFF800
E00001FC00
E000003E00
E000001F00
E000000F80
E0000007C0
E0000003C0
E0000001E0
E0000001E0
E0000000E0
E0000000E0
E0000000F0
E0000000F0
E0000000F0
E0000000F0
E0000000F0
E0000000F0
E0000000F0
E0000000F0
E0000000F0
E0000000F0
E0000000E0
E0000000E0
70000001E0
70000001E0
78000003C0
3C000007C0
1E00000F80
1F00001F00
0F80003E00
07F001FC00
01FFFFF800
007FFFE000
001FFF0000
ENDCHAR
STARTCHAR 0037
ENCODING 55
SWIDTH 489 0
DWIDTH 47 0
BBX 42 62 2 0
BITMAP
00FF00000180
03FFE00001C0
0FFFF00003C0
3F81F8000780
7C003C000F80
F8001E001F80
F0000FC07F00
600007FFFF00
000001FFEE00
0000007F8E00
000000001E00
000000001C00
000000003C00
000000003800
000000003800
000000007000
000000007000
00000000F000
00000000E000
00000000E000
00000001C000
00000001C000
00000003C000
000000038000
000000038000
000000070000
000000070000
0000000F0000
0000000E0000
0000001E0000
0000001C0000
0000001C0000
000000380000
000000380000
000000780000
000000700000
000000700000
000000E00000
000000E00000
000001E00000
000001C00000
000003C00000
000003800000
000003800000
000007800000
000007000000
00000F000000
00000E000000
00000E000000
00001C000000
00001C000000
00003C000000
000038000000
000038000000
000070000000
000070000000
0000F0000000
0000E0000000
0001E0000000
0001C0000000
0001C0000000
000380000000
ENDCHAR
STARTCHAR 0038
ENCODING 56
SWIDTH 406 0
DWIDTH 39 0
BBX 34 62 2 0
BITMAP
0007F80000
001FFF0000
007FFFC000
01FC07E000
03E001F000
07C0007800
0780003C00
0F00001E00
1E00000E00
1C00000F00
1C00000700
3800000700
3800000700
3800000380
3800000380
3800000380
3800000380
3800000380
3800000780
3800000700
3C00000700
1C00000F00
1E00000E00
0F00001E00
0F80003C00
07C0007800
03E001F000
01FC07E000
00FFFF8000
00FFFF8000
01FFFFE000
07F003F000
0F8000F800
1F00003C00
1E00001E00
3C00000F00
7800000700
7000000780
F000000380
E000000380
E000000380
E0000001C0
E0000001C0
E0000001C0
E0000001C0
E0000001C0
E0000001C0
E0000001C0
E0000001C0
E0000003C0
E000000380
7000000380
7000000780
7800000700
3C00000F00
1E00001E00
1F00003C00
0F8000F800
07F003F000
01FFFFE000
00FFFF8000
001FFC0000
ENDCHAR
STARTCHAR 0039
ENCODING 57
SWIDTH 416 0
DWIDTH 40 0
BBX 36 62 2 0
BITMAP
001FFF0000
007FFFE000
01FFFFF800
03F000FC00
0F80003E00
1F00000F00
1E00000780
3C000003C0
78000001C0
70000001E0
70000000E0
F0000000E0
E0000000E0
E000000070
E000000070
E000000070
E000000070
E000000070
E000000070
E000000070
E000000070
E000000070
E000000070
E000000070
E000000070
7000000070
7000000070
7800000070
3C00000070
1E00000070
1F00000070
0F80000070
07F0000070
01FFFFFC70
00FFFFFF70
001FFFFFF0
00000007F0
00000001F0
00000000F0
00000000F0
0000000070
0000000070
0000000070
0000000070
0000000070
0000000070
E000000070
E000000070
E000000070
E0000000F0
E0000000E0
70000000E0
70000001E0
78000001C0
3C000003C0
1E00000780
1F00000F00
0F80003E00
07F000FC00
01FFFFF800
00FFFFE000
001FFF0000
ENDCHAR
STARTCHAR 003A
ENCODING 58
SWIDTH 104 0
DWIDTH 10 0
BBX 5 33 2 0
BITMAP
F0
F8
F8
F8
F8
F0
00
00
00
00
00
00
00
00
00
00
00
00
00
00
00
00
00
00
00
00
00
F0
F8
F8
F8
F8
F0
ENDCHAR
STARTCHAR 003B
ENCODING 59
SWIDTH 125 0
DWIDTH 12 0
BBX 7 41 2 -8
BITMAP
78
7C
7C
7C
7C
78
00
00
00
00
00
00
00
00
00
00
00
00
00
00
00
00
00
00
00
00
00
78
FC
FC
FC
FC
7E
1C
1C
1C
3C
78
F8
70
40
ENDCHAR
STARTCHAR 003C
ENCODING 60
SWIDTH 427 0
DWIDTH 41 0
BBX 35 28 3 17
BITMAP
0000000020
00000001E0
0000000FE0
0000003FC0
000001FF00
000007F800
00003FE000
0000FF0000
0007F80000
001FE00000
00FF000000
07FC000000
1FE0000000
FF80000000
FF80000000
1FE0000000
07FC000000
00FF000000
003FE00000
0007F80000
0000FF0000
00003FC000
000007F800
000001FF00
0000003FC0
0000000FE0
00000001E0
0000000020
ENDCHAR
STARTCHAR 003D
ENCODING 61
SWIDTH 468 0
DWIDTH 45 0
BBX 40 28 2 17
BITMAP
E000000007
E000000007
E00000000F
F00000000E
780000001E
3E0000007C
1FFFFFFFF8
0FFFFFFFF0
03FFFFFFC0
0000000000
0000000000
0000000000
0000000000
0000000000
0000000000
0000000000
0000000000
0000000000
0000000000
03FFFFFFC0
0FFFFFFFF0
1FFFFFFFF8
3E0000007C
780000001E
F00000000E
E00000000F
E000000007
E000000007
ENDCHAR
STARTCHAR 003E
ENCODING 62
SWIDTH 427 0
DWIDTH 41 0
BBX 35 28 2 17
BITMAP
8000000000
F000000000
FC00000000
7F80000000
1FE0000000
03FC000000
00FF800000
001FE00000
0007FC0000
0000FF0000
00001FE000
000007FC00
000000FF00
0000003FE0
0000001FE0
000000FF00
000007FC00
00001FE000
0000FF8000
0003FC0000
001FE00000
00FF800000
03FC000000
1FF0000000
FF80000000
FC00000000
F000000000
8000000000
ENDCHAR
STARTCHAR 003F
ENCODING 63
SWIDTH 416 0
DWIDTH 40 0
BBX 36 62 2 0
BITMAP
001FFF0000
007FFFE000
01FFFFF800
07F000FC00
0F80003E00
1F00000F00
1E00000780
3C000003C0
78000001C0
70000001E0
F0000000E0
E0000000E0
E0000000E0
E000000070
E000000070
0000000070
0000000070
0000000070
00000000F0
00000000E0
00000000E0
00000001E0
00000001C0
00000003C0
0000000780
0000000F00
0000003E00
000000FC00
00007FF800
0001FFE000
0003FF0000
0007C00000
000F000000
001E000000
001C000000
001C000000
001C000000
001C000000
001C000000
001C000000
001C000000
001C000000
001C000000
001C000000
001C000000
001C000000
001C000000
001C000000
001C000000
0000000000
0000000000
0000000000
0000000000
0000000000
0000000000
0000000000
0000000000
0000000000
0000000000
0018000000
001C000000
0018000000
ENDCHAR
STARTCHAR 0040
ENCODING 64
SWIDTH 677 0
DWIDTH 65 0
BBX 60 61 2 1
BITMAP
0000000400000000
0000000E00000000
0000001F00000000
0000003F80000000
0000007BC0000000
000000F1E0000000
000001F0F0000000
000003E078000000
000007C03C000000
00000F801E000000
00001F000F000000
00003E0007800000
00007C0003C00000
0000F80001E00000
0001F00000F00000
0003E07FF8780000
0003C1FFFC3C0000
000783C01E1E0000
000F0700070F0000
001E0E0007078000
003C1C000383C000
007800000381E000
00F000000380F000
01E0000007807800
03C0000007803C00
078000001F801E00
0F00001FFF800F00
1E0000FFF3800780
3C0001E0038003C0
78000380038001E0
F0000700038000F0
78000E00038001E0
3C000E00038003C0
1E001C0003800780
0F001C0003800F00
07801C0003801E00
03C01C0003803C00
03E01C0007007800
01F01C000700F000
00F81C000701E000
007C1C000E03C000
003E1C001E078000
001F0E003C0F0000
000F8F00F81E0000
0007C7FFE03C0000
0003E1FF80780000
0001F00000F00000
0000F80001E00000
00007C0003C00000
00003C0007800000
00001E000F000000
00000F001E000000
000007803C000000
000003C078000000
000001E0F0000000
000000F1E0000000
0000007BC0000000
0000003F80000000
0000001F00000000
0000000E00000000
0000000400000000
ENDCHAR
STARTCHAR 0041
ENCODING 65
SWIDTH 416 0
DWIDTH 40 0
BBX 36 62 2 0
BITMAP
001FFF0000
00FFFFE000
01FFFFF800
07F000FC00
0F80003E00
1F00000F00
3E00000780
3C000003C0
78000001C0
70000001E0
F0000000E0
E0000000E0
E0000000E0
E000000070
E000000070
E000000070
E000000070
E000000070
E000000070
E000000070
E000000070
E000000070
E000000070
E000000070
E000000070
E000000070
E000000070
E000000070
E01FFF0070
E0FFFFE070
E1FFFFF870
E7F000FC70
EF80003E70
FF00000F70
FE000007F0
FC000003F0
F8000001F0
F0000001F0
F0000000F0
E0000000F0
E0000000F0
E000000070
E000000070
E000000070
E000000070
E000000070
E000000070
E000000070
E000000070
E000000070
E000000070
E000000070
E000000070
E000000070
E000000070
E000000070
E000000070
E000000070
E000000070
E000000070
E000000070
E000000070
ENDCHAR
STARTCHAR 0042
ENCODING 66
SWIDTH 416 0
DWIDTH 40 0
BBX 36 62 2 0
BITMAP
001FFF0000
00FFFFE000
01FFFFF800
07F000FC00
0F80003E00
1F00000F00
3E00000780
3C000003C0
78000001C0
70000001E0
F0000000E0
E0000000E0
E0000000E0
E000000070
E000000070
E000000070
E000000070
E000000070
E0000000E0
E0000000E0
E0000000E0
E0000001E0
E0000001C0
E000000380
E000000780
E000000F00
E000003E00
E00000FC00
E01FFFF000
E0FFFFE000
E1FFFFF800
E7F000FC00
EF80003E00
FF00000F00
FE00000780
FC00000380
F8000001C0
F0000001E0
F0000000E0
E0000000E0
E0000000E0
E000000070
E000000070
E000000070
E000000070
E000000070
E000000070
E000000070
E000000070
E0000000F0
E0000000E0
E0000000E0
E0000001E0
E0000001C0
E0000003C0
E000000780
E000000F00
E000003E00
E00000FC00
FFFFFFF800
FFFFFFE000
FFFFFF0000
ENDCHAR
STARTCHAR 0043
ENCODING 67
SWIDTH 416 0
DWIDTH 40 0
BBX 35 62 2 0
BITMAP
001FFF0000
00FFFFE000
01FFFFF000
07F001FC00
0F80003E00
1F00001F00
3E00000F80
3C00000780
78000003C0
70000001C0
F0000001E0
E0000000E0
E0000000E0
E0000000E0
E0000000E0
E0000000E0
E000000000
E000000000
E000000000
E000000000
E000000000
E000000000
E000000000
E000000000
E000000000
E000000000
E000000000
E000000000
E000000000
E000000000
E000000000
E000000000
E000000000
E000000000
E000000000
E000000000
E000000000
E000000000
E000000000
E000000000
E000000000
E000000000
E000000000
E000000000
E000000000
E000000000
E000000000
E0000000E0
E0000000E0
E0000000E0
E0000000E0
70000001E0
70000001C0
78000003C0
3C00000780
1E00000F80
1F00001F00
0F80003E00
07F001FC00
01FFFFF800
00FFFFE000
001FFF0000
ENDCHAR
STARTCHAR 0044
ENCODING 68
SWIDTH 416 0
DWIDTH 40 0
BBX 36 62 2 0
BITMAP
FFFFFF0000
FFFFFFE000
FFFFFFF800
E00000FC00
E000003E00
E000000F00
E000000780
E0000003C0
E0000001C0
E0000001E0
E0000000E0
E0000000E0
E0000000E0
E000000070
E000000070
E000000070
E000000070
E000000070
E000000070
E000000070
E000000070
E000000070
E000000070
E000000070
E000000070
E000000070
E000000070
E000000070
E000000070
E000000070
E000000070
E000000070
E000000070
E000000070
E000000070
E000000070
E000000070
E000000070
E000000070
E000000070
E000000070
E000000070
E000000070
E000000070
E000000070
E000000070
E000000070
E000000070
E000000070
E0000000F0
E0000000E0
E0000000E0
E0000001E0
E0000001C0
E0000003C0
E000000780
E000000F00
E000003E00
E00000FC00
FFFFFFF800
FFFFFFE000
FFFFFF0000
ENDCHAR
STARTCHAR 0045
ENCODING 69
SWIDTH 375 0
DWIDTH 36 0
BBX 31 62 2 0
BITMAP
001FFFFE
007FFFFE
01FFFFFE
07F00000
0F800000
1F000000
1E000000
3C000000
78000000
70000000
70000000
E0000000
E0000000
E0000000
E0000000
E0000000
E0000000
E0000000
E0000000
E0000000
E0000000
E0000000
E0000000
E0000000
E0000000
E0000000
E0000000
E0000000
E01FFC00
E0FFFC00
E1FFFC00
E7F00000
EF800000
FF000000
FE000000
FC000000
F8000000
F0000000
F0000000
E0000000
E0000000
E0000000
E0000000
E0000000
E0000000
E0000000
E0000000
E0000000
E0000000
E0000000
E0000000
E0000000
E0000000
E0000000
E0000000
E0000000
E0000000
E0000000
E0000000
FFFFFFFE
FFFFFFFE
FFFFFFFE
ENDCHAR
STARTCHAR 0046
ENCODING 70
SWIDTH 343 0
DWIDTH 33 0
BBX 31 62 2 0
BITMAP
001FFFFE
007FFFFE
01FFFFFE
07F00000
0F800000
1F000000
1E000000
3C000000
78000000
70000000
70000000
E0000000
E0000000
E0000000
E0000000
E0000000
E0000000
E0000000
E0000000
E0000000
E0000000
E0000000
E0000000
E0000000
E0000000
E0000000
E0000000
E0000000
E01FFC00
E0FFFC00
E1FFFC00
E7F00000
EF800000
FF000000
FE000000
FC000000
F8000000
F0000000
F0000000
E0000000
E0000000
E0000000
E0000000
E0000000
E0000000
E0000000
E0000000
E0000000
E0000000
E0000000
E0000000
E0000000
E0000000
E0000000
E0000000
E0000000
E0000000
E0000000
E0000000
E0000000
E0000000
E0000000
ENDCHAR
STARTCHAR 0047
ENCODING 71
SWIDTH 416 0
DWIDTH 40 0
BBX 36 62 2 0
BITMAP
001FFF0000
00FFFFE000
01FFFFF800
07F000FC00
0F80003E00
1F00000F00
3E00000780
3C000003C0
78000001C0
70000001E0
F0000000E0
E0000000E0
E0000000E0
E000000070
E000000070
E000000070
E000000000
E000000000
E000000000
E000000000
E000000000
E000000000
E000000000
E000000000
E000000000
E000000000
E000000000
E000000000
E000000000
E000000000
E000000000
E01FFF0000
E01FFFE000
E01FFFF800
E00000FC00
E000003E00
E000000F00
E000000780
E0000003C0
E0000001C0
E0000001E0
E0000000E0
E0000000E0
E0000000E0
E000000070
E000000070
E000000070
E000000070
E000000070
E0000000F0
E0000000F0
70000000F0
70000001F0
78000001F0
3C000003F0
1E000007F0
1F00000F70
0F80003E70
07F000FC70
01FFFFF870
007FFFE070
001FFF0070
ENDCHAR
STARTCHAR 0048
ENCODING 72
SWIDTH 416 0
DWIDTH 40 0
BBX 36 62 2 0
BITMAP
E000000070
E000000070
E000000070
E000000070
E000000070
E000000070
E000000070
E000000070
E000000070
E000000070
E000000070
E000000070
E000000070
E000000070
E000000070
E000000070
E000000070
E000000070
E000000070
E000000070
E000000070
E000000070
E000000070
E000000070
E000000070
E01FFF0070
E0FFFFE070
E1FFFFF870
E7F000FC70
EF80003E70
FF00000F70
FE000007F0
FC000003F0
F8000001F0
F0000001F0
F0000000F0
E0000000F0
E0000000F0
E000000070
E000000070
E000000070
E000000070
E000000070
E000000070
E000000070
E000000070
E000000070
E000000070
E000000070
E000000070
E000000070
E000000070
E000000070
E000000070
E000000070
E000000070
E000000070
E000000070
E000000070
E000000070
E000000070
E000000070
ENDCHAR
STARTCHAR 0049
ENCODING 73
SWIDTH 114 0
DWIDTH 11 0
BBX 7 62 2 0
BITMAP
FE
FE
FE
38
38
38
38
38
38
38
38
38
38
38
38
38
38
38
38
38
38
38
38
38
38
38
38
38
38
38
38
38
38
38
38
38
38
38
38
38
38
38
38
38
38
38
38
38
38
38
38
38
38
38
38
38
38
38
38
FE
FE
FE
ENDCHAR
STARTCHAR 004A
ENCODING 74
SWIDTH 416 0
DWIDTH 40 0
BBX 36 62 2 0
BITMAP
0000000070
0000000070
0000000070
0000000070
0000000070
0000000070
0000000070
0000000070
0000000070
0000000070
0000000070
0000000070
0000000070
0000000070
0000000070
0000000070
0000000070
0000000070
0000000070
0000000070
0000000070
0000000070
0000000070
0000000070
0000000070
0000000070
0000000070
0000000070
0000000070
0000000070
0000000070
0000000070
0000000070
0000000070
0000000070
0000000070
0000000070
0000000070
0000000070
0000000070
0000000070
0000000070
0000000070
0000000070
0000000070
0000000070
0000000070
E000000070
E000000070
E0000000F0
F0000000E0
70000000E0
70000001E0
78000001C0
3C000003C0
1E00000780
1F00000F00
0F80003E00
07F000FC00
01FFFFF800
007FFFE000
001FFF0000
ENDCHAR
STARTCHAR 004B
ENCODING 75
SWIDTH 416 0
DWIDTH 40 0
BBX 36 62 2 0
BITMAP
E000000070
E000000070
E000000070
E000000070
E000000070
E000000070
E000000070
E000000070
E000000070
E000000070
E000000070
E000000070
E000000070
E000000070
E000000070
E000000070
E000000070
E000000070
E0000000E0
E0000000E0
E0000000E0
E0000001E0
E0000001C0
E000000380
E000000780
E000000F00
E000003E00
E00000FC00
E01FFFF000
E0FFFFE000
E1FFFFF800
E7F000FC00
EF80003E00
FF00000F00
FE00000780
FC00000380
F8000001C0
F0000001E0
F0000000E0
E0000000E0
E0000000E0
E000000070
E000000070
E000000070
E000000070
E000000070
E000000070
E000000070
E000000070
E000000070
E000000070
E000000070
E000000070
E000000070
E000000070
E000000070
E000000070
E000000070
E000000070
E000000070
E000000070
E000000070
ENDCHAR
STARTCHAR 004C
ENCODING 76
SWIDTH 375 0
DWIDTH 36 0
BBX 31 62 2 0
BITMAP
E0000000
E0000000
E0000000
E0000000
E0000000
E0000000
E0000000
E0000000
E0000000
E0000000
E0000000
E0000000
E0000000
E0000000
E0000000
E0000000
E0000000
E0000000
E0000000
E0000000
E0000000
E0000000
E0000000
E0000000
E0000000
E0000000
E0000000
E0000000
E0000000
E0000000
E0000000
E0000000
E0000000
E0000000
E0000000
E0000000
E0000000
E0000000
E0000000
E0000000
E0000000
E0000000
E0000000
E0000000
E0000000
E0000000
E0000000
E0000000
E0000000
E0000000
E0000000
E0000000
E0000000
E0000000
E0000000
E0000000
E0000000
E0000000
E0000000
FFFFFFFE
FFFFFFFE
FFFFFFFE
ENDCHAR
STARTCHAR 004D
ENCODING 77
SWIDTH 645 0
DWIDTH 62 0
BBX 55 62 3 0
BITMAP
001FE00007F800
00FFFC001FFF00
01FFFF007FFFC0
07F01F80FC07E0
0F8007C1E001F0
1F0003C3C000F0
1E0001E7800078
3C0000F7000038
780000FE00003C
7000007C00001C
7000007C00001C
F000003C00000E
E000003800000E
E000003800000E
E000003800000E
E000003800000E
E000003800000E
E000003800000E
E000003800000E
E000003800000E
E000003800000E
E000003800000E
E000003800000E
E000003800000E
E000003800000E
E000003800000E
E000003800000E
E000003800000E
E000003800000E
E000003800000E
E000003800000E
E000003800000E
E000003800000E
E000003800000E
E000003800000E
E000003800000E
E000003800000E
E000003800000E
E000003800000E
E000003800000E
E000003800000E
E000003800000E
E000003800000E
E000003800000E
E000003800000E
E000003800000E
E000003800000E
E000003800000E
E000003800000E
E000003800000E
E000003800000E
E000003800000E
E000003800000E
E000003800000E
E000003800000E
E000003800000E
E000003800000E
E000003800000E
E000003800000E
E000003800000E
E000003800000E
E000003800000E
ENDCHAR
STARTCHAR 004E
ENCODING 78
SWIDTH 416 0
DWIDTH 40 0
BBX 36 62 2 0
BITMAP
E000000070
E000000070
F000000070
F000000070
F800000070
F800000070
FC00000070
FE00000070
EE00000070
EF00000070
E700000070
E780000070
E380000070
E3C0000070
E1C0000070
E0E0000070
E0E0000070
E070000070
E078000070
E038000070
E03C000070
E01C000070
E01E000070
E00E000070
E00F000070
E007000070
E003800070
E003800070
E001C00070
E001E00070
E000E000F0
E000F000F0
E0007000F0
E0007800F0
E0003800F0
E0003C00F0
E0001C00F0
E0001E00F0
E0000E00F0
E0000700F0
E0000700F0
E0000380F0
E00003C0F0
E00001C0F0
E00001E0F0
E00000E0F0
E00000F0F0
E0000070F0
E0000078F0
E0000038F0
E000001CF0
E000001CF0
E000000EF0
E000000FF0
E0000007F0
E0000007F0
E0000003F0
E0000003F0
E0000001F0
E0000001F0
E0000000F0
E0000000F0
ENDCHAR
STARTCHAR 004F
ENCODING 79
SWIDTH 416 0
DWIDTH 40 0
BBX 36 62 2 0
BITMAP
001FFF0000
00FFFFE000
01FFFFF800
07F000FC00
0F80003E00
1F00000F00
3E00000780
3C000003C0
78000001C0
70000001E0
F0000000E0
E0000000E0
E0000000E0
E000000070
E000000070
E000000070
E000000070
E000000070
E000000070
E000000070
E000000070
E000000070
E000000070
E000000070
E000000070
E000000070
E000000070
E000000070
E000000070
E000000070
E000000070
E000000070
E000000070
E000000070
E000000070
E000000070
E000000070
E000000070
E000000070
E000000070
E000000070
E000000070
E000000070
E000000070
E000000070
E000000070
E000000070
E000000070
E000000070
E0000000F0
E0000000E0
70000000E0
70000001E0
78000001C0
3C000003C0
1E00000780
1F00000F00
0F80003E00
07F000FC00
01FFFFF800
007FFFE000
001FFF0000
ENDCHAR
STARTCHAR 0050
ENCODING 80
SWIDTH 416 0
DWIDTH 40 0
BBX 36 62 2 0
BITMAP
FFFFFF0000
FFFFFFE000
FFFFFFF800
E00000FC00
E000003E00
E000000F00
E000000780
E0000003C0
E0000001C0
E0000001E0
E0000000E0
E0000000E0
E0000000E0
E000000070
E000000070
E000000070
E000000070
E000000070
E000000070
E000000070
E000000070
E000000070
E000000070
E000000070
E0000000F0
E0000000E0
F0000000E0
F0000001E0
F8000001C0
FC000003C0
FE00000780
FF00000F00
EF80003E00
E7F000FC00
E3FFFFF800
E0FFFFE000
E01FFF0000
E000000000
E000000000
E000000000
E000000000
E000000000
E000000000
E000000000
E000000000
E000000000
E000000000
E000000000
E000000000
E000000000
E000000000
E000000000
E000000000
E000000000
E000000000
E000000000
E000000000
E000000000
E000000000
E000000000
E000000000
E000000000
ENDCHAR
STARTCHAR 0051
ENCODING 81
SWIDTH 416 0
DWIDTH 40 0
BBX 36 75 2 -13
BITMAP
001FFF0000
00FFFFE000
01FFFFF800
07F000FC00
0F80003E00
1F00000F00
3E00000780
3C000003C0
78000001C0
70000001E0
F0000000E0
E0000000E0
E0000000E0
E000000070
E000000070
E000000070
E000000070
E000000070
E000000070
E000000070
E000000070
E000000070
E000000070
E000000070
E000000070
E000000070
E000000070
E000000070
E000000070
E000000070
E000000070
E000000070
E000C00070
E001E00070
E001C00070
E001C00070
E003800070
E003800070
E003800070
E003800070
E003800070
E003800070
E003800070
E003800070
E003800070
E003C00070
E001C00070
E001E00070
E000F00070
E000F800E0
E0007C00E0
70003E01E0
70001F81E0
780007C3C0
3C0003F780
1E0000FF80
1F00007F00
0F80003E00
07F001FC00
01FFFFFE00
007FFFC700
001FFF0700
0000000700
0000000300
0000000380
0000000380
0000000380
0000000380
0000000780
0000000700
0000000700
0000000F00
0000000E00
0000000E00
0000000400
ENDCHAR
STARTCHAR 0052
ENCODING 82
SWIDTH 416 0
DWIDTH 40 0
BBX 36 62 2 0
BITMAP
FFFFFF0000
FFFFFFE000
FFFFFFF800
E00000FC00
E000003E00
E000000F00
E000000780
E0000003C0
E0000001C0
E0000001E0
E0000000E0
E0000000E0
E0000000F0
E000000070
E000000070
E000000070
E000000070
E000000070
E0000000E0
E0000000E0
E0000000E0
E0000001E0
E0000001C0
E000000380
E000000780
E000000F00
E000003E00
E00000FC00
E01FFFF800
E0FFFFE000
E3FFFFE000
E7F003F000
EF8000F800
FF00003C00
FE00001E00
FC00000F00
F800000700
F000000780
F000000380
E000000380
E0000003C0
E0000001C0
E0000001C0
E0000001C0
E0000001C0
E0000001C0
E0000001C0
E0000001C0
E0000001C0
E0000001C0
E0000001C0
E0000001C0
E0000001C0
E0000001C0
E0000001C0
E0000001C0
E0000001C0
E0000001C0
E0000001C0
E0000001C0
E0000001C0
E0000001C0
ENDCHAR
STARTCHAR 0053
ENCODING 83
SWIDTH 416 0
DWIDTH 40 0
BBX 36 62 2 0
BITMAP
001FFF0000
00FFFFE000
01FFFFF800
07F000FC00
0F80003E00
1F00000F00
3E00000780
3C000003C0
78000001C0
70000001E0
F0000000E0
E0000000E0
E0000000F0
E000000070
E000000070
E000000000
E000000000
E000000000
E000000000
E000000000
7000000000
7000000000
7800000000
3C00000000
3E00000000
1F00000000
0F80000000
07F0000000
01FFFF0000
00FFFFE000
001FFFF800
000000FC00
0000003E00
0000000F00
0000000780
00000003C0
00000001C0
00000001E0
00000000E0
00000000E0
00000000E0
0000000070
0000000070
0000000070
0000000070
0000000070
E000000070
E000000070
E000000070
E0000000F0
E0000000E0
70000000E0
70000001E0
78000001C0
3C000003C0
1E00000780
1F00000F00
0F80003E00
03F000FC00
01FFFFF800
007FFFE000
001FFF0000
ENDCHAR
STARTCHAR 0054
ENCODING 84
SWIDTH 500 0
DWIDTH 48 0
BBX 46 62 2 0
BITMAP
007FC0000010
03FFF800003C
0FFFFC000078
1FC07F0000F0
3E000FC001F0
780003F80FC0
F00001FFFF80
F00001FFFE00
200001CFF800
000001C00000
000001C00000
000001C00000
000001C00000
000001C00000
000001C00000
000001C00000
000001C00000
000001C00000
000001C00000
000001C00000
000001C00000
000001C00000
000001C00000
000001C00000
000001C00000
000001C00000
000001C00000
000001C00000
000001C00000
000001C00000
000001C00000
000001C00000
000001C00000
000001C00000
000001C00000
000001C00000
000001C00000
000001C00000
000001C00000
000001C00000
000001C00000
000001C00000
000001C00000
000001C00000
000001C00000
000001C00000
000001C00000
000001C00000
000001C00000
000001C00000
000001C00000
000001C00000
000001C00000
000001C00000
000001C00000
000001C00000
000001C00000
000001C00000
000001C00000
000001C00000
000001C00000
000001C00000
ENDCHAR
STARTCHAR 0055
ENCODING 85
SWIDTH 416 0
DWIDTH 40 0
BBX 36 62 2 0
BITMAP
E000000070
E000000070
E000000070
E000000070
E000000070
E000000070
E000000070
E000000070
E000000070
E000000070
E000000070
E000000070
E000000070
E000000070
E000000070
E000000070
E000000070
E000000070
E000000070
E000000070
E000000070
E000000070
E000000070
E000000070
E000000070
E000000070
E000000070
E000000070
E000000070
E000000070
E000000070
E000000070
E000000070
E000000070
E000000070
E000000070
E000000070
E000000070
E000000070
E000000070
E000000070
E000000070
E000000070
E000000070
E000000070
E000000070
E000000070
E000000070
E000000070
E0000000E0
E0000000E0
70000000E0
70000001E0
78000001C0
3C000003C0
1E00000780
1F00000F00
0F80003E00
07F000FC00
01FFFFF800
007FFFE000
001FFF0000
ENDCHAR
STARTCHAR 0056
ENCODING 86
SWIDTH 468 0
DWIDTH 45 0
BBX 40 62 2 0
BITMAP
E000000007
E000000007
E000000007
E00000000E
E00000000E
700000000E
700000000E
700000000E
700000000E
700000001E
700000001C
780000001C
380000001C
380000001C
380000001C
380000001C
3800000038
3800000038
1C00000038
1C00000038
1C00000038
1C00000038
1C00000038
1C00000070
1C00000070
0E00000070
0E00000070
0E00000070
0E00000070
0E000000F0
0E000000E0
0F000000E0
07000000E0
07000000E0
07000000E0
07000000E0
07000001C0
07000001C0
03800001C0
03800001C0
03800001C0
03800001C0
03800001C0
0380000380
03C0000380
01C0000380
01C0000380
01C0000380
01C0000380
01C0000780
01C0000700
01E0000700
00E0000700
00E0000F00
00F0000E00
0070001E00
0038003C00
003E007800
001F81F000
0007FFE000
0003FFC000
0000FE0000
ENDCHAR
STARTCHAR 0057
ENCODING 87
SWIDTH 645 0
DWIDTH 62 0
BBX 55 62 3 0
BITMAP
E000003800000E
E000003800000E
E000003800000E
E000003800000E
E000003800000E
E000003800000E
E000003800000E
E000003800000E
E000003800000E
E000003800000E
E000003800000E
E000003800000E
E000003800000E
E000003800000E
E000003800000E
E000003800000E
E000003800000E
E000003800000E
E000003800000E
E000003800000E
E000003800000E
E000003800000E
E000003800000E
E000003800000E
E000003800000E
E000003800000E
E000003800000E
E000003800000E
E000003800000E
E000003800000E
E000003800000E
E000003800000E
E000003800000E
E000003800000E
E000003800000E
E000003800000E
E000003800000E
E000003800000E
E000003800000E
E000003800000E
E000003800000E
E000003800000E
E000003800000E
E000003800000E
E000003800000E
E000003800000E
E000003800000E
E000003800000E
E000003800000E
E000003800000E
F000003C00000E
7000007C00001C
7000007C00001C
380000FE00003C
3C0000F7000038
1E0001E7800078
0F0003C3C000F0
0F8007C1E001E0
03F01F80FC07E0
01FFFF007FFF80
007FFC001FFF00
000FE00003FC00
ENDCHAR
STARTCHAR 0058
ENCODING 88
SWIDTH 416 0
DWIDTH 40 0
BBX 36 62 2 0
BITMAP
E000000070
E000000070
E000000070
E000000070
E000000070
E000000070
E000000070
E000000070
E000000070
E000000070
E000000070
E000000070
E000000070
E000000070
E000000070
E000000070
E000000070
E000000070
E0000000F0
E0000000F0
E0000000E0
E0000001E0
70000001E0
70000001E0
38000003C0
3C00000380
1E00000780
0F00000F00
0780003E00
03F000F800
00FFFFF000
00FFFFF000
03FFFFF800
07F000FE00
0F80003F00
1F00000F80
3E00000780
3C000003C0
78000001C0
70000001E0
F0000000E0
E0000000E0
E0000000F0
E000000070
E000000070
E000000070
E000000070
E000000070
E000000070
E000000070
E000000070
E000000070
E000000070
E000000070
E000000070
E000000070
E000000070
E000000070
E000000070
E000000070
E000000070
E000000070
ENDCHAR
STARTCHAR 0059
ENCODING 89
SWIDTH 406 0
DWIDTH 39 0
BBX 34 62 2 0
BITMAP
E0000001C0
E0000001C0
E0000001C0
E0000001C0
E0000001C0
E0000001C0
E0000001C0
E0000001C0
E0000001C0
E0000001C0
E0000001C0
E0000001C0
E0000001C0
E0000001C0
E0000001C0
E0000001C0
E0000001C0
E0000001C0
E0000001C0
E0000001C0
E0000001C0
E0000001C0
E0000001C0
E0000001C0
E0000001C0
E0000001C0
E0000003C0
E000000380
F000000780
7800000F00
3E00003F00
1FF007FE00
0FFC1FFC00
07FF3FE000
001F7C0000
0007F00000
0007E00000
0003C00000
0001C00000
0001C00000
0001C00000
0001C00000
0001C00000
0001C00000
0001C00000
0001C00000
0001C00000
0001C00000
0001C00000
0001C00000
0001C00000
0001C00000
0001C00000
0001C00000
0001C00000
0001C00000
0001C00000
0001C00000
0001C00000
0001C00000
0001C00000
0001C00000
ENDCHAR
STARTCHAR 005A
ENCODING 90
SWIDTH 416 0
DWIDTH 40 0
BBX 35 62 2 0
BITMAP
FFFFFFFFE0
FFFFFFFFE0
FFFFFFFFE0
00000000E0
00000000E0
00000000E0
00000000E0
00000000E0
00000000E0
00000000E0
00000000E0
00000000E0
00000001C0
00000001C0
00000001C0
00000001C0
0000000380
0000000380
0000000380
0000000700
0000000700
0000000F00
0000000E00
0000001E00
0000001C00
0000003800
0000007800
000000F000
000001E000
000007C000
0003FF8000
000FFF0000
003FF80000
007E000000
00F0000000
01E0000000
01C0000000
0380000000
0780000000
0700000000
0E00000000
0E00000000
1C00000000
1C00000000
1C00000000
3800000000
3800000000
3800000000
7000000000
7000000000
7000000000
7000000000
E000000000
E000000000
E000000000
E000000000
E000000000
E000000000
E000000000
FFFFFFFFE0
FFFFFFFFE0
FFFFFFFFE0
ENDCHAR
STARTCHAR 005B
ENCODING 91
SWIDTH 166 0
DWIDTH 16 0
BBX 11 74 2 -6
BITMAP
FFE0
FFE0
FFE0
E000
E000
E000
E000
E000
E000
E000
E000
E000
E000
E000
E000
E000
E000
E000
E000
E000
E000
E000
E000
E000
E000
E000
E000
E000
E000
E000
E000
E000
E000
E000
E000
E000
E000
E000
E000
E000
E000
E000
E000
E000
E000
E000
E000
E000
E000
E000
E000
E000
E000
E000
E000
E000
E000
E000
E000
E000
E000
E000
E000
E000
E000
E000
E000
E000
E000
E000
E000
FFE0
FFE0
FFE0
ENDCHAR
STARTCHAR 005C
ENCODING 92
SWIDTH 468 0
DWIDTH 45 0
BBX 39 62 2 1
BITMAP
F000000000
7000000000
3800000000
3C00000000
1C00000000
1E00000000
0E00000000
0700000000
0780000000
0380000000
03C0000000
01C0000000
01E0000000
00E0000000
0070000000
0078000000
0038000000
003C000000
001C000000
001E000000
000F000000
0007000000
0007800000
0003800000
0003C00000
0001C00000
0000E00000
0000F00000
0000700000
0000780000
0000380000
00003C0000
00001C0000
00000E0000
00000F0000
0000070000
0000078000
0000038000
000001C000
000001E000
000000E000
000000F000
0000007000
0000007800
0000003800
0000001C00
0000001E00
0000000E00
0000000F00
0000000700
0000000780
00000003C0
00000001C0
00000001E0
00000000E0
00000000F0
0000000070
0000000038
000000003C
000000001C
000000001E
000000000E
ENDCHAR
STARTCHAR 005D
ENCODING 93
SWIDTH 166 0
DWIDTH 16 0
BBX 11 74 2 -6
BITMAP
FFE0
FFE0
FFE0
01E0
01E0
01E0
01E0
01E0
01E0
01E0
01E0
01E0
01E0
01E0
01E0
01E0
01E0
01E0
01E0
01E0
01E0
01E0
01E0
01E0
01E0
01E0
01E0
01E0
01E0
01E0
01E0
01E0
01E0
01E0
01E0
01E0
01E0
01E0
01E0
01E0
01E0
01E0
01E0
01E0
01E0
01E0
01E0
01E0
01E0
01E0
01E0
01E0
01E0
01E0
01E0
01E0
01E0
01E0
01E0
01E0
01E0
01E0
01E0
01E0
01E0
01E0
01E0
01E0
01E0
01E0
01E0
FFE0
FFE0
FFE0
ENDCHAR
STARTCHAR 005E
ENCODING 94
SWIDTH 239 0
DWIDTH 23 0
BBX 18 12 2 49
BITMAP
01F000
03F000
07F800
073800
0F3C00
0E1C00
1E0E00
1C0F00
380700
780780
700380
F003C0
ENDCHAR
STARTCHAR 005F
ENCODING 95
SWIDTH 489 0
DWIDTH 47 0
BBX 43 3 1 -18
BITMAP
FFFFFFFFFFE0
FFFFFFFFFFE0
FFFFFFFFFFE0
ENDCHAR
STARTCHAR 0060
ENCODING 96
SWIDTH 135 0
DWIDTH 13 0
BBX 8 8 2 54
BITMAP
F0
78
78
3C
1C
1E
0E
07
ENDCHAR
STARTCHAR 0061
ENCODING 97
SWIDTH 354 0
DWIDTH 34 0
BBX 29 44 2 0
BITMAP
003FFE00
01FFFF80
03FFFFC0
0FC003E0
1F0000E0
3E0000F0
3C000070
78000078
F0000038
E0000038
00000038
00000078
00000078
000000F8
000000F8
000003F8
001FFFF8
00FFFFB8
01FFFE38
07F00038
0F800038
1F000038
3E000038
3C000038
78000038
70000038
F0000038
E0000038
E0000038
E0000038
E0000038
E0000070
E0000070
E0000070
E00000F0
E00000E0
E00001E0
E00003C0
70000780
78001F00
3C007E00
1FFFFC00
0FFFF000
03FFC000
ENDCHAR
STARTCHAR 0062
ENCODING 98
SWIDTH 375 0
DWIDTH 36 0
BBX 31 62 2 0
BITMAP
E0000000
E0000000
E0000000
E0000000
E0000000
E0000000
E0000000
E0000000
E0000000
E0000000
E0000000
E0000000
E0000000
E0000000
E0000000
E0000000
E0000000
E0000000
E01FE000
E07FFC00
E1FFFF00
E3F01F80
E78007C0
EF0001E0
FE0000F0
FC000070
F8000038
F000003C
F000001C
E000001C
E000001C
E000000E
E000000E
E000000E
E000000E
E000000E
E000000E
E000000E
E000000E
E000000E
E000000E
E000000E
E000000E
E000000E
E000000E
E000000E
E000000E
E000000E
E000000E
E000001C
E000001C
F000001C
7000003C
78000038
3C000078
1E0000F0
1F0001E0
0F8007C0
07F01F80
01FFFF00
00FFFC00
001FE000
ENDCHAR
STARTCHAR 0063
ENCODING 99
SWIDTH 375 0
DWIDTH 36 0
BBX 31 44 2 0
BITMAP
001FE000
007FFC00
01FFFF00
07F01F80
0F8007C0
1F0001E0
1E0000F0
3C000070
78000078
70000038
7000003C
E000001C
E000001C
E000001E
E000000E
E000000E
E0000000
E0000000
E0000000
E0000000
E0000000
E0000000
E0000000
E0000000
E0000000
E0000000
E0000000
E0000000
E0000000
E000000E
E000001E
E000001C
E000001C
7000001C
7000003C
78000078
3C000078
1E0000F0
1F0001E0
0F8007C0
07F01F80
01FFFF00
00FFFC00
001FE000
ENDCHAR
STARTCHAR 0064
ENCODING 100
SWIDTH 375 0
DWIDTH 36 0
BBX 31 62 2 0
BITMAP
0000000E
0000000E
0000000E
0000000E
0000000E
0000000E
0000000E
0000000E
0000000E
0000000E
0000000E
0000000E
0000000E
0000000E
0000000E
0000000E
0000000E
0000000E
001FE00E
007FFC0E
01FFFE0E
03F01F8E
0F8007CE
1F0001EE
1E0000EE
3C00007E
7800003E
7000003E
7000001E
E000001E
E000001E
E000000E
E000000E
E000000E
E000000E
E000000E
E000000E
E000000E
E000000E
E000000E
E000000E
E000000E
E000000E
E000000E
E000000E
E000000E
E000000E
E000000E
E000000E
E000001C
E000001C
7000001C
7000003C
78000038
3C000078
1E0000F0
1F0001E0
0F8007C0
07F01F80
01FFFF00
00FFFC00
001FE000
ENDCHAR
STARTCHAR 0065
ENCODING 101
SWIDTH 375 0
DWIDTH 36 0
BBX 31 44 2 0
BITMAP
001FE000
007FFC00
01FFFF00
07F01F80
0F8007C0
1F0003E0
1E0000F0
3C0000F0
78000078
70000038
7000003C
E000001C
E000001C
E000001E
E000000E
E000000E
E000000E
E000000E
E01FFFFE
E0FFFFFE
E3FFFFFE
E7E00000
EF800000
FE000000
FC000000
F8000000
F8000000
F0000000
E000000E
E000000E
E000000E
E000001E
E000001C
6000001C
7000003C
78000038
38000078
1C0000F0
1E0001E0
0F8007C0
07E01F80
01FFFF00
00FFFC00
001FE000
ENDCHAR
STARTCHAR 0066
ENCODING 102
SWIDTH 333 0
DWIDTH 32 0
BBX 31 62 2 0
BITMAP
001FE000
007FFC00
01FFFF00
07F01F80
0F8007C0
1F0001E0
1E0000F0
3C000070
78000078
7000003C
7000001C
E000001C
E000001C
E000001E
E000000E
E000000E
E0000000
E0000000
E0000000
E0000000
E0000000
E0000000
E0000000
E0000000
E0000000
E0000000
E0000000
E0000000
E01FFC00
E0FFFC00
E1FFFC00
E7F00000
EF800000
FF000000
FE000000
FC000000
F8000000
F0000000
F0000000
E0000000
E0000000
E0000000
E0000000
E0000000
E0000000
E0000000
E0000000
E0000000
E0000000
E0000000
E0000000
E0000000
E0000000
E0000000
E0000000
E0000000
E0000000
E0000000
E0000000
E0000000
E0000000
E0000000
ENDCHAR
STARTCHAR 0067
ENCODING 103
SWIDTH 375 0
DWIDTH 36 0
BBX 31 62 2 -18
BITMAP
001FE000
007FFC00
01FFFF00
07F01F80
0F8007C0
1F0001E0
1E0000F0
3C000078
78000038
7000003C
7000001C
E000001C
E000001C
E000000E
E000000E
E000000E
E000000E
E000000E
E000000E
E000000E
E000000E
E000000E
E000000E
E000000E
E000000E
E000000E
E000000E
E000000E
E000000E
E000000E
E000001E
E000001E
F000001E
7000003E
7800003E
3C00007E
3E0000FE
1F0001EE
0F8007CE
07F01F8E
03FFFF0E
00FFFC0E
001FF00E
0000000E
0000000E
0000000E
E000000E
E000000E
E000000E
E000001C
E000001C
7000001C
7000003C
78000038
3C000078
1E0000F0
1F0001E0
0F8007C0
07F01F80
01FFFF00
00FFFC00
001FE000
ENDCHAR
STARTCHAR 0068
ENCODING 104
SWIDTH 375 0
DWIDTH 36 0
BBX 31 62 2 0
BITMAP
E0000000
E0000000
E0000000
E0000000
E0000000
E0000000
E0000000
E0000000
E0000000
E0000000
E0000000
E0000000
E0000000
E0000000
E0000000
E0000000
E0000000
E0000000
E0038000
E01FF000
E0FFFC00
E3FFFF00
E7F01F80
EF8007C0
FF0001E0
FE0000F0
FC000078
F8000038
F000003C
F000001C
E000001C
E000001E
E000000E
E000000E
E000000E
E000000E
E000000E
E000000E
E000000E
E000000E
E000000E
E000000E
E000000E
E000000E
E000000E
E000000E
E000000E
E000000E
E000000E
E000000E
E000000E
E000000E
E000000E
E000000E
E000000E
E000000E
E000000E
E000000E
E000000E
E000000E
E000000E
E000000E
ENDCHAR
STARTCHAR 0069
ENCODING 105
SWIDTH 83 0
DWIDTH 8 0
BBX 3 51 2 0
BITMAP
C0
E0
C0
00
00
00
00
E0
E0
E0
E0
E0
E0
E0
E0
E0
E0
E0
E0
E0
E0
E0
E0
E0
E0
E0
E0
E0
E0
E0
E0
E0
E0
E0
E0
E0
E0
E0
E0
E0
E0
E0
E0
E0
E0
E0
E0
E0
E0
E0
E0
ENDCHAR
STARTCHAR 006A
ENCODING 106
SWIDTH 114 0
DWIDTH 11 0
BBX 15 69 -8 -18
BITMAP
000E
000E
000E
0000
0000
0000
0000
000E
000E
000E
000E
000E
000E
000E
000E
000E
000E
000E
000E
000E
000E
000E
000E
000E
000E
000E
000E
000E
000E
000E
000E
000E
000E
000E
000E
000E
000E
000E
000E
000E
000E
000E
000E
000E
000E
000E
000E
000E
000E
000E
000E
000E
000E
000E
000E
000E
000E
001E
001C
001C
0038
0078
00F0
01E0
03E0
1FC0
FF00
FE00
F000
ENDCHAR
STARTCHAR 006B
ENCODING 107
SWIDTH 375 0
DWIDTH 36 0
BBX 31 62 2 0
BITMAP
E0000000
E0000000
E0000000
E0000000
E0000000
E0000000
E0000000
E0000000
E0000000
E0000000
E0000000
E0000000
E0000000
E0000000
E0000000
E0000000
E0000000
E0000000
E000000E
E000000E
E000000E
E000000E
E000000E
E000000E
E000000E
E000000E
E000000E
E000001C
E000001C
E000001C
E000003C
E0000038
E0000078
E00000F0
E00001E0
E00007C0
E0001F80
E01FFF00
E0FFFC00
E1FFFF00
E7F01F80
EF8007C0
FF0001E0
FE0000F0
FC000078
F8000038
F000003C
F000001C
E000001C
E000001C
E000000E
E000000E
E000000E
E000000E
E000000E
E000000E
E000000E
E000000E
E000000E
E000000E
E000000E
E000000E
ENDCHAR
STARTCHAR 006C
ENCODING 108
SWIDTH 83 0
DWIDTH 8 0
BBX 3 62 2 0
BITMAP
E0
E0
E0
E0
E0
E0
E0
E0
E0
E0
E0
E0
E0
E0
E0
E0
E0
E0
E0
E0
E0
E0
E0
E0
E0
E0
E0
E0
E0
E0
E0
E0
E0
E0
E0
E0
E0
E0
E0
E0
E0
E0
E0
E0
E0
E0
E0
E0
E0
E0
E0
E0
E0
E0
E0
E0
E0
E0
E0
E0
E0
E0
ENDCHAR
STARTCHAR 006D
ENCODING 109
SWIDTH 645 0
DWIDTH 62 0
BBX 55 44 3 0
BITMAP
0003E00000F800
001FFC0007FF00
00FFFE001FFF80
01FFFF807FFFE0
07F01F80FC07E0
0F8007C1E001F0
1F0003E3C000F8
1E0001E7800078
3C0000FF00003C
780000FE00003C
7000007C00001C
7000007C00001E
F000003C00000E
E000003800000E
E000003800000E
E000003800000E
E000003800000E
E000003800000E
E000003800000E
E000003800000E
E000003800000E
E000003800000E
E000003800000E
E000003800000E
E000003800000E
E000003800000E
E000003800000E
E000003800000E
E000003800000E
E000003800000E
E000003800000E
E000003800000E
E000003800000E
E000003800000E
E000003800000E
E000003800000E
E000003800000E
E000003800000E
E000003800000E
E000003800000E
E000003800000E
E000003800000E
E000003800000E
E000003800000E
ENDCHAR
STARTCHAR 006E
ENCODING 110
SWIDTH 354 0
DWIDTH 34 0
BBX 29 44 2 0
BITMAP
001FE000
00FFF800
01FFFE00
07F03F00
0F800780
1F0003C0
1E0001C0
3C0000E0
780000E0
70000070
70000070
E0000070
E0000078
E0000038
E0000038
E0000038
E0000038
E0000038
E0000038
E0000038
E0000038
E0000038
E0000038
E0000038
E0000038
E0000038
E0000038
E0000038
E0000038
E0000038
E0000038
E0000038
E0000038
E0000038
E0000038
E0000038
E0000038
E0000038
E0000038
E0000038
E0000038
E0000038
E0000038
E0000038
ENDCHAR
STARTCHAR 006F
ENCODING 111
SWIDTH 375 0
DWIDTH 36 0
BBX 31 44 2 0
BITMAP
001FE000
007FFC00
01FFFF00
07F01F80
0F8007C0
1F0001E0
1E0000F0
3C000070
78000038
7000003C
7000001C
E000001C
E000001C
E000000E
E000000E
E000000E
E000000E
E000000E
E000000E
E000000E
E000000E
E000000E
E000000E
E000000E
E000000E
E000000E
E000000E
E000000E
E000000E
E000000E
E000000E
E000001C
E000001C
7000001C
7000003C
78000038
3C000078
1E0000F0
1F0001E0
0F8007C0
07F01F80
01FFFF00
00FFFC00
001FE000
ENDCHAR
STARTCHAR 0070
ENCODING 112
SWIDTH 375 0
DWIDTH 36 0
BBX 31 62 2 -18
BITMAP
001FE000
007FFC00
01FFFF00
07F01F80
0F8007C0
1F0001E0
1E0000F0
3C000078
78000038
7000003C
7000001C
E000001C
E000001C
E000000E
E000000E
E000000E
E000000E
E000000E
E000000E
E000000E
E000000E
E000000E
E000000E
E000000E
E000000E
E000000E
E000000E
E000000E
E000000E
E000000E
E000001E
E000001C
F000001C
F000003C
F8000038
FC000078
FE0000F0
FF0001E0
EF8007C0
E7F01F80
E3FFFF00
E0FFFC00
E01FE000
E0000000
E0000000
E0000000
E0000000
E0000000
E0000000
E0000000
E0000000
E0000000
E0000000
E0000000
E0000000
E0000000
E0000000
E0000000
E0000000
E0000000
E0000000
E0000000
ENDCHAR
STARTCHAR 0071
ENCODING 113
SWIDTH 375 0
DWIDTH 36 0
BBX 31 62 2 -18
BITMAP
001FE000
00FFFC00
01FFFF00
07F01F80
0F8007C0
1F0001E0
1E0000F0
3C000078
78000038
7000003C
7000001C
E000001C
E000001C
E000000E
E000000E
E000000E
E000000E
E000000E
E000000E
E000000E
E000000E
E000000E
E000000E
E000000E
E000000E
E000000E
E000000E
E000000E
E000000E
E000000E
E000001E
E000001E
F000001E
7000003E
7800003E
3C00007E
1E0000FE
1F0001EE
0F8007CE
07F01F8E
01FFFF0E
00FFFC0E
001FF00E
0000000E
0000000E
0000000E
0000000E
0000000E
0000000E
0000000E
0000000E
0000000E
0000000E
0000000E
0000000E
0000000E
0000000E
0000000E
0000000E
0000000E
0000000E
0000000E
ENDCHAR
STARTCHAR 0072
ENCODING 114
SWIDTH 312 0
DWIDTH 30 0
BBX 27 44 2 0
BITMAP
001FE000
00FFFC00
01FFFE00
07F03F00
0F800780
1F0003C0
1E0001E0
3C0001E0
780000E0
70000000
70000000
E0000000
E0000000
E0000000
E0000000
E0000000
E0000000
E0000000
E0000000
E0000000
E0000000
E0000000
E0000000
E0000000
E0000000
E0000000
E0000000
E0000000
E0000000
E0000000
E0000000
E0000000
E0000000
E0000000
E0000000
E0000000
E0000000
E0000000
E0000000
E0000000
E0000000
E0000000
E0000000
E0000000
ENDCHAR
STARTCHAR 0073
ENCODING 115
SWIDTH 322 0
DWIDTH 31 0
BBX 26 44 2 0
BITMAP
03FFF000
0FFFF800
1FFFFE00
3E001F00
78000F00
70000780
E0000380
E0000380
E00001C0
E00001C0
E0000000
E0000000
E0000000
E0000000
E0000000
F0000000
70000000
78000000
3E000000
1FFFF000
0FFFFC00
03FFFE00
00001F00
00000700
00000780
00000380
000001C0
000001C0
000001C0
000001C0
000001C0
000001C0
000001C0
000001C0
000001C0
E00001C0
E00001C0
E0000380
F0000780
78000700
3C001F00
1FFFFE00
0FFFFC00
03FFF000
ENDCHAR
STARTCHAR 0074
ENCODING 116
SWIDTH 250 0
DWIDTH 24 0
BBX 22 57 2 0
BITMAP
E00000
E00000
E00000
E00000
E00000
E00000
E00000
E00000
E00000
E00000
E00000
E01FFC
E0FFFC
E3FFFC
E7F000
EF8000
FF0000
FE0000
FC0000
F80000
F00000
F00000
E00000
E00000
E00000
E00000
E00000
E00000
E00000
E00000
E00000
E00000
E00000
E00000
E00000
E00000
E00000
E00000
E00000
E00000
E00000
E00000
E00000
E00000
E00000
E00000
E00000
E00000
E00000
E00000
E00000
E00000
E00000
E00000
E00000
E00000
E00000
ENDCHAR
STARTCHAR 0075
ENCODING 117
SWIDTH 354 0
DWIDTH 34 0
BBX 29 44 2 0
BITMAP
E0000038
E0000038
E0000038
E0000038
E0000038
E0000038
E0000038
E0000038
E0000038
E0000038
E0000038
E0000038
E0000038
E0000038
E0000038
E0000038
E0000038
E0000038
E0000038
E0000038
E0000038
E0000038
E0000038
E0000038
E0000038
E0000038
E0000038
E0000038
E0000038
E0000038
E0000038
E0000078
E0000070
70000070
70000070
780000E0
3C0000E0
1E0001C0
1F0003C0
0F800780
07E01F00
01FFFE00
00FFF800
001FE000
ENDCHAR
STARTCHAR 0076
ENCODING 118
SWIDTH 406 0
DWIDTH 39 0
BBX 34 44 2 0
BITMAP
E0000001C0
E000000380
E000000380
7000000380
7000000380
7000000780
7000000700
3800000700
3800000700
3800000F00
3800000E00
3C00000E00
1C00000E00
1C00000E00
1C00001C00
1C00001C00
0E00001C00
0E00001C00
0E00003C00
0E00003800
0700003800
0700003800
0700007800
0700007000
0380007000
0380007000
0380007000
038000E000
038000E000
01C000E000
01C000E000
01C001C000
01C001C000
00E001C000
00E001C000
00E0038000
00F0038000
0070038000
0078070000
003C0F0000
001E1E0000
001FFC0000
000FF80000
0003E00000
ENDCHAR
STARTCHAR 0077
ENCODING 119
SWIDTH 645 0
DWIDTH 62 0
BBX 55 44 3 0
BITMAP
E000003800000E
E000003800000E
E000003800000E
E000003800000E
E000003800000E
E000003800000E
E000003800000E
E000003800000E
E000003800000E
E000003800000E
E000003800000E
E000003800000E
E000003800000E
E000003800000E
E000003800000E
E000003800000E
E000003800000E
E000003800000E
E000003800000E
E000003800000E
E000003800000E
E000003800000E
E000003800000E
E000003800000E
E000003800000E
E000003800000E
E000003800000E
E000003800000E
E000003800000E
E000003800000E
E000003800000E
E000003800000E
F000003C00000E
7000007C00001C
7000007C00001C
380000FE00003C
3C0000EF000038
1E0001E7800078
0F0003C3C000F0
0F800783E001E0
03F01F80FC07C0
01FFFE007FFF80
007FFC001FFF00
001FE00007F800
ENDCHAR
STARTCHAR 0078
ENCODING 120
SWIDTH 354 0
DWIDTH 34 0
BBX 29 44 2 0
BITMAP
E0000038
E0000038
E0000038
E0000038
E0000038
E0000038
E0000038
E0000038
E0000038
E0000038
E0000038
E0000078
E0000070
70000070
70000070
380000E0
3C0000E0
1E0001C0
0F0003C0
07800780
03F03F00
00FFFE00
00FFFE00
03FFFF00
07F03F80
0F8007C0
1F0003C0
3E0001E0
3C0000E0
780000F0
70000070
F0000070
E0000070
E0000038
E0000038
E0000038
E0000038
E0000038
E0000038
E0000038
E0000038
E0000038
E0000038
E0000038
ENDCHAR
STARTCHAR 0079
ENCODING 121
SWIDTH 375 0
DWIDTH 36 0
BBX 31 62 2 -18
BITMAP
E000000E
E000000E
E000000E
E000000E
E000000E
E000000E
E000000E
E000000E
E000000E
E000000E
E000000E
E000000E
E000000E
E000000E
E000000E
E000000E
E000000E
E000000E
E000000E
E000000E
E000000E
E000000E
E000000E
E000000E
E000000E
E000000E
E000000E
E000000E
E000000E
E000000E
E000000E
E000001E
E000001E
7000001E
7000003E
7800003E
3C00007E
1E0000FE
1F0001EE
0F8007CE
07F01F8E
01FFFF0E
00FFFC0E
001FF00E
0000000E
0000000E
0000000E
E000000E
E000000E
E000001C
E000001C
F000001C
7000003C
78000038
38000078
3C0000F0
1F0001E0
0F8007C0
07F01F80
01FFFF00
00FFFC00
001FE000
ENDCHAR
STARTCHAR 007A
ENCODING 122
SWIDTH 354 0
DWIDTH 34 0
BBX 29 44 2 0
BITMAP
FFFFFFF8
FFFFFFF8
FFFFFFF8
00000038
00000038
00000038
00000038
00000038
00000038
00000038
00000038
00000078
00000070
00000070
00000070
000000E0
000000E0
000001C0
000003C0
00000780
00001F00
001FFE00
00FFF800
01FFE000
07F00000
0F800000
1F000000
3E000000
3C000000
78000000
70000000
F0000000
E0000000
E0000000
E0000000
E0000000
E0000000
E0000000
E0000000
E0000000
E0000000
FFFFFFF8
FFFFFFF8
FFFFFFF8
ENDCHAR
STARTCHAR 007B
ENCODING 123
SWIDTH 343 0
DWIDTH 33 0
BBX 28 74 2 -6
BITMAP
000000F0
000007F0
00001FF0
00003F80
0000FC00
0001F000
0001E000
0003C000
00078000
00070000
00070000
000E0000
000E0000
000E0000
000E0000
000E0000
000E0000
000E0000
000E0000
000E0000
000E0000
000E0000
000E0000
000E0000
000E0000
000E0000
001C0000
001C0000
001C0000
003C0000
00780000
00780000
00F00000
03E00000
07C00000
FF800000
FF000000
FE000000
FF800000
0FC00000
03E00000
00F00000
00780000
00780000
003C0000
001C0000
001C0000
001C0000
000E0000
000E0000
000E0000
000E0000
000E0000
000E0000
000E0000
000E0000
000E0000
000E0000
000E0000
000E0000
000E0000
000E0000
000E0000
000F0000
00070000
00078000
0003C000
0001E000
0001F000
0000FC00
00007F00
00001FF0
000007F0
000001F0
ENDCHAR
STARTCHAR 007C
ENCODING 124
SWIDTH 208 0
DWIDTH 20 0
BBX 15 74 2 -6
BITMAP
E00E
F83E
FC7E
3EF0
0FE0
07C0
0780
0380
0380
0380
0380
0380
0380
0380
0380
0380
0380
0380
0380
0380
0380
0380
0380
0380
0380
0380
0380
0380
0380
0380
0380
0380
0380
0380
0380
0380
0380
0380
0380
0380
0380
0380
0380
0380
0380
0380
0380
0380
0380
0380
0380
0380
0380
0380
0380
0380
0380
0380
0380
0380
0380
0380
0380
0380
0380
0380
0380
0780
07C0
0FE0
3EF0
FCFE
F83E
E00E
ENDCHAR
STARTCHAR 007D
ENCODING 125
SWIDTH 343 0
DWIDTH 33 0
BBX 28 74 2 -6
BITMAP
F0000000
FC000000
FF000000
1FC00000
07E00000
01F00000
00F00000
00780000
003C0000
001C0000
001C0000
000E0000
000E0000
000E0000
000E0000
000E0000
000E0000
000E0000
000E0000
000E0000
000E0000
000E0000
000E0000
000E0000
000E0000
000E0000
000F0000
00070000
00070000
00078000
0003C000
0001E000
0001F000
0000F800
00007E00
00003FE0
00000FF0
00000FF0
00003FF0
00007E00
0000F800
0001F000
0003E000
0003C000
00078000
00070000
00070000
000F0000
000E0000
000E0000
000E0000
000E0000
000E0000
000E0000
000E0000
000E0000
000E0000
000E0000
000E0000
000E0000
000E0000
000E0000
000E0000
001E0000
001C0000
003C0000
00780000
00F80000
01F00000
03E00000
1FC00000
FF000000
FE000000
F0000000
ENDCHAR
STARTCHAR 007E
ENCODING 126
SWIDTH 531 0
DWIDTH 51 0
BBX 46 9 2 39
BITMAP
007FC0000010
03FFF000003C
0FFFFC000078
1FC07F0000F0
3E000FC001F0
780003F80FC0
F00001FFFF80
F000007FFE00
2000000FF800
ENDCHAR
STARTCHAR 00A0
ENCODING 160
SWIDTH 354 0
DWIDTH 34 0
BBX 0 0 0 0
BITMAP
ENDCHAR
STARTCHAR 00A1
ENCODING 161
SWIDTH 83 0
DWIDTH 8 0
BBX 3 62 2 -10
BITMAP
C0
E0
C0
00
00
00
00
00
00
00
00
00
00
E0
E0
E0
E0
E0
E0
E0
E0
E0
E0
E0
E0
E0
E0
E0
E0
E0
E0
E0
E0
E0
E0
E0
E0
E0
E0
E0
E0
E0
E0
E0
E0
E0
E0
E0
E0
E0
E0
E0
E0
E0
E0
E0
E0
E0
E0
E0
E0
E0
ENDCHAR
STARTCHAR 00A2
ENCODING 162
SWIDTH 375 0
DWIDTH 36 0
BBX 31 62 2 -9
BITMAP
07FFFFC0
07FFFFC0
07FFFFC0
01F01E00
00703C00
00383800
00387000
001C7000
001C7000
001FF000
007FF800
01FFFE00
03FFFF80
07FC7FC0
0F9C73E0
1E1C71F0
3C1C70F0
381C7078
781C7038
701C703C
F01C701C
E01C701C
E01C701E
E01C700E
E01C700E
E01C7000
E01C7000
E01C7000
E01C7000
E01C7000
E01C7000
E01C7000
E01C7000
E01C7000
E01C7000
E01C7000
E01C7000
E01C700E
E01C700E
E01C701E
E01C701C
E01C701C
701C703C
701C7038
381C7078
3C1C7070
1E1C70F0
0F1C73E0
07DC7FC0
03FC7F80
01FFFE00
007FF800
001FF000
001C7000
001C7000
00387000
00387800
00783C00
01F01E00
07FFFFC0
07FFFFC0
07FFFFC0
ENDCHAR
STARTCHAR 00A3
ENCODING 163
SWIDTH 395 0
DWIDTH 38 0
BBX 38 62 -4 0
BITMAP
00001FFFFC
0000FFFFFC
0003FFFFFC
0007E00000
000F000000
001E000000
003C000000
0078000000
0070000000
00E0000000
00E0000000
00E0000000
01C0000000
01C0000000
01C0000000
01C0000000
01C0000000
01C0000000
01C0000000
01C0000000
01C0000000
01C0000000
01C0000000
01C0000000
01C00F8000
01C07FE000
01C1FFF000
61C7F0F800
F1DFC03C00
79FF003000
7FFC000000
1FF0000000
0FC0000000
01C0000000
01C0000000
01C0000000
01C0000000
01C0000000
01C0000000
01C0000000
01C0000000
01C0000000
01C0000000
01C0000000
01C0000000
01C0000000
01C0000000
01C0000000
01C0000000
01C0000000
01C0000000
01C0000000
01C0000000
01C0000000
01C0000000
01C0000000
01C0000000
01C0000000
01C0000000
01FFFFFFFC
01FFFFFFFC
01FFFFFFFC
ENDCHAR
STARTCHAR 00A4
ENCODING 164
SWIDTH 406 0
DWIDTH 39 0
BBX 34 33 2 27
BITMAP
03F007F000
0FFC1FFC00
1FFF3FFE00
3E0FFC1F00
7803F00780
F001E00380
E003F00380
E007F801C0
E00F3C01C0
E01E1E01C0
E03C0F01C0
E078078380
70F003C380
79E001E700
3FC000FF00
1F80007E00
0F00003C00
1F80007E00
3FC000FF00
79E001E700
F0F003C380
E078078380
E03C0F01C0
E01E1E01C0
E00F3C01C0
E007F801C0
E003F00380
F003E00380
7807F00780
3E0FFC1F00
1FFF3FFE00
0FFE1FFC00
03F007F000
ENDCHAR
STARTCHAR 00A5
ENCODING 165
SWIDTH 406 0
DWIDTH 39 0
BBX 34 62 2 0
BITMAP
E0000001C0
E0000001C0
E0000001C0
E0000001C0
E0000001C0
E0000001C0
E0000001C0
E0000001C0
E0000001C0
E0000001C0
E0000001C0
E0000001C0
E0000001C0
E0000001C0
E0000001C0
E0000001C0
E0000001C0
E0000001C0
E0000001C0
E0000001C0
E0000001C0
E0000003C0
E000000380
7000000780
7800000F80
3E00003F00
1FF007FE00
0FFC1FFC00
03FF3FF000
001F7C0000
0007F00000
0003E00000
0003C00000
0001C00000
7FFFFFFE00
7FFFFFFE00
7FFFFFFE00
0001C00000
0001C00000
0001C00000
0001C00000
0001C00000
0001C00000
0001C00000
07FFFFF000
07FFFFF000
07FFFFF000
0001C00000
0001C00000
0001C00000
0001C00000
0001C00000
0001C00000
0001C00000
0001C00000
0001C00000
0001C00000
0001C00000
0001C00000
0001C00000
0001C00000
0001C00000
ENDCHAR
STARTCHAR 00A6
ENCODING 166
SWIDTH 208 0
DWIDTH 20 0
BBX 15 62 2 0
BITMAP
E00E
F83E
FCFE
3EF0
0FE0
07C0
0780
0380
0380
0380
0380
0380
0380
0380
0380
0380
0380
0380
0380
0380
0380
0780
07C0
0FE0
3EF0
FCFE
F83E
E00E
0000
0000
0000
0000
0000
0000
E00E
F83E
FCFE
3EF0
0FE0
07C0
0780
0380
0380
0380
0380
0380
0380
0380
0380
0380
0380
0380
0380
0380
0380
0780
07C0
0FE0
3EF0
FCFE
F83E
E00E
ENDCHAR
STARTCHAR 00A7
ENCODING 167
SWIDTH 322 0
DWIDTH 31 0
BBX 26 65 2 -9
BITMAP
03FFF000
0FFFFC00
1FFFFE00
3C001F00
78000700
70000780
E0000380
E00003C0
E00001C0
E0000000
E0000000
E0000000
E0000000
E0000000
E0000000
E0000000
E0000000
E0000000
F0000000
78000000
7C000000
3FFFF000
1FFFFC00
1FFFFE00
3C001F00
78000F00
70000780
E0000380
E00003C0
E00001C0
E00001C0
E00001C0
E00001C0
E00001C0
E00001C0
E00003C0
E0000380
F0000380
78000780
3E001F00
1FFFFE00
0FFFFC00
03FFFE00
00001F00
00000780
00000380
00000380
000001C0
000001C0
000001C0
000001C0
000001C0
000001C0
000001C0
000001C0
000001C0
E00001C0
E00003C0
E0000380
70000780
78000700
3E001F00
1FFFFE00
0FFFFC00
03FFF000
ENDCHAR
STARTCHAR 00A8
ENCODING 168
SWIDTH 218 0
DWIDTH 21 0
BBX 15 6 3 64
BITMAP
781E
781E
F83E
F83E
781E
781E
ENDCHAR
STARTCHAR 00A9
ENCODING 169
SWIDTH 427 0
DWIDTH 41 0
BBX 44 56 -6 3
BITMAP
001FFFFF8000
00FFFFFFF000
01FFFFFFF800
07F00000FE00
0F8000001F00
1F0000000F80
1E007FF00780
3C03FFFC03C0
7807FFFE01E0
700FC01F00E0
701F000F80E0
F03C000380F0
E03C0003C070
E0380001C070
E0700001E070
E0700000E070
E0700000E070
E0700000E070
E07000000070
E07000000070
E07000000070
E07000000070
E07000000070
E07000000070
E07000000070
E07000000070
E07000000070
E07000000070
E07000000070
E07000000070
E07000000070
E07000000070
E07000000070
E07000000070
E07000000070
E07000000070
E07000000070
E07000000070
E0700000E070
E0700000E070
E0700000E070
E0700001E070
E0380001C070
E0380003C070
F01C000380F0
701F000780E0
700F801F00E0
3807FFFE01C0
3C01FFFC03C0
1E007FE00780
0F0000000F00
0F8000001F00
03F00000FC00
01FFFFFFF800
007FFFFFE000
001FFFFF8000
ENDCHAR
STARTCHAR 00AA
ENCODING 170
SWIDTH 354 0
DWIDTH 34 0
BBX 27 35 3 27
BITMAP
007FFC00
03FFFF00
07C00780
1F0001C0
3C0000E0
380000E0
700000E0
F00000E0
000000E0
000000E0
000000E0
000001E0
000007E0
003FFFE0
00FFFCE0
03E000E0
078000E0
1E0000E0
1C0000E0
380000E0
780000E0
700000E0
700000E0
700000E0
E00000E0
E00000E0
E00000E0
E00001C0
E00001C0
70000380
70000700
38001E00
1E007C00
0FFFF000
03FF8000
ENDCHAR
STARTCHAR 00AC
ENCODING 172
SWIDTH 447 0
DWIDTH 43 0
BBX 36 9 3 20
BITMAP
FFFFFFFC00
FFFFFFFF00
FFFFFFFF80
00000007C0
00000001E0
00000000E0
0000000070
0000000070
0000000070
ENDCHAR
STARTCHAR 00AD
ENCODING 173
SWIDTH 395 0
DWIDTH 38 0
BBX 33 3 2 26
BITMAP
FFFFFFFF80
FFFFFFFF80
FFFFFFFF80
ENDCHAR
STARTCHAR 00AE
ENCODING 174
SWIDTH 427 0
DWIDTH 41 0
BBX 44 56 -6 3
BITMAP
000FFFFF8000
007FFFFFF000
01FFFFFFF800
07F00000FE00
0F8000001F00
1F0000000F80
1E1FFFF80780
3C1FFFFF03C0
781FFFFF81E0
701C0007C0E0
701C0001E0E0
F01C0000F0F0
E01C00007070
E01C00007070
E01C00003870
E01C00003870
E01C00003870
E01C00003870
E01C00003870
E01C00003870
E01C00007870
E01C00007070
E01C0000F070
E01C0003E070
E01C0007C070
E01C1FFF8070
E01C7FFF0070
E01DFFFE0070
E01FF01F8070
E01FC007C070
E01F0001C070
E01F0001E070
E01E0000E070
E01C00007070
E01C00007070
E01C00007070
E01C00007070
E01C00007070
E01C00007070
E01C00007070
E01C00007070
E01C00007070
E01C00007070
E01C00007070
F01C000070F0
701C000070E0
701C000070E0
381C000071C0
3C1C000073C0
1E1C00007780
0F0000000F00
0F8000001F00
03F00000FC00
01FFFFFFF800
007FFFFFE000
001FFFFF8000
ENDCHAR
STARTCHAR 00B1
ENCODING 177
SWIDTH 468 0
DWIDTH 45 0
BBX 41 46 2 5
BITMAP
000F00F00000
000FC3F00000
000FEFF00000
0001FF800000
0000FF000000
00007E000000
00003C000000
00001C000000
00001C000000
00001C000000
00001C000000
00001C000000
E0001C000380
E0001C000380
E0001C000700
F0001C000700
78001C000F00
3E001C003E00
3FFFFFFFFC00
0FFFFFFFF800
3FFFFFFFFC00
3E001C003E00
78001C000F00
F0001C000700
E0001C000700
E0001C000380
E0001C000380
00001C000000
00001C000000
00001C000000
00001C000000
00001C000000
00003C000000
00003C000000
00003E000000
00007F000000
0001EF800000
01FFFFFFE000
07FFFFFFF800
0FFFFFFFFC00
1E0000003E00
3C0000000F00
780000000700
700000000780
700000000380
700000000380
ENDCHAR
STARTCHAR 00B2
ENCODING 178
SWIDTH 260 0
DWIDTH 25 0
BBX 20 38 3 24
BITMAP
00F800
01FE00
1E0F80
3803C0
7001C0
6000E0
E000E0
C00070
C00070
C00070
000070
000070
000070
000070
000070
0000E0
0000E0
0001E0
0003C0
000F80
00FF00
01FC00
020000
040000
080000
100000
200000
600000
E00000
E00000
E00000
E00000
E00000
E00000
E00000
E00000
FFFFF0
FFFFF0
ENDCHAR
STARTCHAR 00B3
ENCODING 179
SWIDTH 260 0
DWIDTH 25 0
BBX 20 38 2 24
BITMAP
FFFC00
FFFF00
000F80
0003C0
0001E0
0000E0
0000E0
000070
000070
000070
000070
000070
0000F0
0000E0
0001E0
0003C0
000F80
03FF00
03FF00
000F80
0003C0
0001E0
0000E0
0000F0
000070
000070
000070
000070
C00070
C00070
C00070
6000E0
6000E0
7001C0
3803C0
1E0F80
0FFF00
03F800
ENDCHAR
STARTCHAR 00B4
ENCODING 180
SWIDTH 135 0
DWIDTH 13 0
BBX 8 8 2 55
BITMAP
0F
0E
1E
3C
3C
78
70
F0
ENDCHAR
STARTCHAR 00B5
ENCODING 181
SWIDTH 354 0
DWIDTH 34 0
BBX 29 62 2 -18
BITMAP
E0000038
E0000038
E0000038
E0000038
E0000038
E0000038
E0000038
E0000038
E0000038
E0000038
E0000038
E0000038
E0000038
E0000038
E0000038
E0000038
E0000038
E0000038
E0000038
E0000038
E0000038
E0000038
E0000038
E0000038
E0000038
E0000038
E0000038
E0000038
E0000038
E0000038
E0000038
E0000070
F0000070
F0000070
F80000F0
FC0000E0
FE0001E0
FF0003C0
EF8007C0
E7E01FE0
E3FFFEF8
E0FFF878
E01FE038
E0000000
E0000000
E0000000
E0000000
E0000000
E0000000
E0000000
E0000000
E0000000
E0000000
E0000000
E0000000
E0000000
E0000000
E0000000
E0000000
E0000000
E0000000
E0000000
ENDCHAR
STARTCHAR 00B6
ENCODING 182
SWIDTH 333 0
DWIDTH 32 0
BBX 28 67 2 -5
BITMAP
001FFFF0
00FFFFF0
03FFC380
07FFC380
0FFFC380
1FFFC380
3FFFC380
3FFFC380
7FFFC380
7FFFC380
FFFFC380
FFFFC380
FFFFC380
FFFFC380
FFFFC380
FFFFC380
FFFFC380
FFFFC380
FFFFC380
FFFFC380
FFFFC380
FFFFC380
7FFFC380
7FFFC380
7FFFC380
3FFFC380
1FFFC380
1FFFC380
0FFFC380
03FFC380
01FFC380
007FC380
0001C380
0001C380
0001C380
0001C380
0001C380
0001C380
0001C380
0001C380
0001C380
0001C380
0001C380
0001C380
0001C380
0001C380
0001C380
0001C380
0001C380
0001C380
0001C380
0001C380
0001C380
0001C380
0001C380
0001C380
0001C380
0001C380
0001C380
0001C380
0001C380
0001C380
0001C380
0001C380
0001C380
0001C380
0001C380
ENDCHAR
STARTCHAR 00B8
ENCODING 184
SWIDTH 312 0
DWIDTH 30 0
BBX 11 17 16 -14
BITMAP
3C00
3800
3800
3800
3800
3E00
3F80
7FC0
01C0
00E0
00E0
00E0
00E0
21C0
7FC0
FF80
3E00
ENDCHAR
STARTCHAR 00B9
ENCODING 185
SWIDTH 93 0
DWIDTH 9 0
BBX 5 39 2 24
BITMAP
08
08
18
38
38
38
38
38
38
38
38
38
38
38
38
38
38
38
38
38
38
38
38
38
38
38
38
38
38
38
38
38
38
38
38
38
F8
F8
F8
ENDCHAR
STARTCHAR 00BA
ENCODING 186
SWIDTH 177 0
DWIDTH 17 0
BBX 12 13 2 49
BITMAP
1F00
3FC0
7FC0
F0E0
E0E0
E070
E070
E070
E0F0
F0E0
7FE0
3FC0
1F00
ENDCHAR
STARTCHAR 00BC
ENCODING 188
SWIDTH 562 0
DWIDTH 54 0
BBX 47 63 4 0
BITMAP
100000000000
300003800000
300007800000
700007800000
700007800000
700007000000
70000F000000
70000F000000
70000F000000
70001E000000
70001E000000
70001E000000
70001C000000
70003C000000
70003C000000
70003C000000
700078000000
700078000000
700078000000
700070000000
7000F0000000
7000F0000000
7000F0000000
7000E0000000
7001E0000000
7001E001C000
7001C001C000
7003C0038000
7003C0038000
7003C0078000
700380070000
700780070000
7007800F0000
7007800E0000
7007000E0000
700F001C0000
F80F001C0000
F80E003C0000
F81E00380000
001E00380000
001E00780000
001C00700000
003C00700000
003C00F01C00
003800E01C00
003800E01C00
007801C01C00
007801C01C00
007003FF9C00
00F003FFFC06
00F003E0FC0E
00E007807C3C
00E007001FF8
01E001001FE0
01E000001C00
01C000001C00
01C000001C00
03C000001C00
038000001C00
038000001C00
078000001C00
078000001C00
070000001C00
ENDCHAR
STARTCHAR 00BD
ENCODING 189
SWIDTH 541 0
DWIDTH 52 0
BBX 46 63 3 0
BITMAP
100000000000
100007800000
300007000000
70000F000000
70000F000000
70000F000000
70000E000000
70001E000000
70001E000000
70001E000000
70001C000000
70003C000000
70003C000000
70003C000000
700038000000
700078000000
700078000000
700070000000
700070000000
7000F0000000
7000F0000000
7000E0000000
7000E0000000
7001E0000000
7001E0000000
7001C0003E00
7003C000FF80
7003C00703E0
7003801C00F0
700380380070
700780300038
700780700038
70070070001C
70070060001C
700F0060001C
700F0000001C
F80E0000001C
F80E0000001C
F81E0000001C
001E0000001C
001C00000038
001C00000038
003C00000070
0038000000F0
0038000003E0
007800007F80
007800007E00
007000018000
007000020000
00F000040000
00F000080000
00E000100000
00E000300000
01E000700000
01E000700000
01C000700000
01C000700000
03C000700000
038000700000
038000700000
038000700000
0780007FFFFC
0700007FFFFC
ENDCHAR
STARTCHAR 00BE
ENCODING 190
SWIDTH 677 0
DWIDTH 65 0
BBX 61 62 2 0
BITMAP
FFFC00001E000000
FFFF00001E000000
0007C0001C000000
0001E0003C000000
0000E0003C000000
000070003C000000
0000700078000000
0000380078000000
0000380078000000
0000380070000000
00003800F0000000
00003800F0000000
00007800F0000000
00007001E0000000
0000F001E0000000
0001E001E0000000
0007C001C0000000
03FF0003C0000000
03FF0003C0000000
00078003C0000000
0001E00380000000
0000E00780000000
0000700780000000
0000700700000000
0000380F000F0000
0000380F000E0000
0000380F000E0000
0000380E001E0000
C000381E001C0000
C000381E001C0000
E000381E00380000
E000701C00380000
6000703C00780000
7000E03C00700000
3801E03800700000
1E07C07800F00000
0FFF007800E00000
03FC007800E00000
0000007001C00000
000000F001C00000
000000F003C00000
000000E003800000
000000E00380E000
000001E00780E000
000001E00700E000
000001C00700E000
000003C00E00E000
000003C00FFCE000
000003801FFFE038
000003801F07E078
000007801E01E0F0
000007803C00FFC0
000007000800FF00
000007000000E000
00000F000000E000
00000F000000E000
00000E000000E000
00001E000000E000
00001E000000E000
00001C000000E000
00001C000000E000
00003C000000E000
ENDCHAR
STARTCHAR 00BF
ENCODING 191
SWIDTH 416 0
DWIDTH 40 0
BBX 35 62 2 -10
BITMAP
0000030000
0000038000
0000030000
0000000000
0000000000
0000000000
0000000000
0000000000
0000000000
0000000000
0000000000
0000000000
0000000000
0000038000
0000038000
0000038000
0000038000
0000038000
0000038000
0000038000
0000038000
0000038000
0000038000
0000038000
0000038000
0000038000
0000038000
0000070000
0000070000
00000F0000
00003E0000
001FFC0000
007FF80000
01FFE00000
07F0000000
0F80000000
1F00000000
1E00000000
3C00000000
7800000000
7000000000
7000000000
E000000000
E000000000
E000000000
E000000000
E000000000
E0000000E0
E0000000E0
E0000000E0
E0000000E0
70000001E0
70000001C0
78000003C0
3C00000780
1E00000780
1F00001F00
0F80003E00
07F000FC00
01FFFFF800
00FFFFE000
001FFF0000
ENDCHAR
STARTCHAR 00C0
ENCODING 192
SWIDTH 416 0
DWIDTH 40 0
BBX 36 75 2 0
BITMAP
0003800000
0003C00000
0001E00000
0000E00000
0000F00000
0000700000
0000780000
00003C0000
0000000000
0000000000
0000000000
0000000000
0000000000
001FFF0000
00FFFFE000
01FFFFF800
07F000FC00
0F80003E00
1F00000F00
3E00000780
3C000003C0
78000001C0
70000001E0
F0000000E0
E0000000E0
E0000000E0
E000000070
E000000070
E000000070
E000000070
E000000070
E000000070
E000000070
E000000070
E000000070
E000000070
E000000070
E000000070
E000000070
E000000070
E000000070
E01FFF0070
E0FFFFE070
E1FFFFF870
E7F000FC70
EF80003E70
FF00000F70
FE000007F0
FC000003F0
F8000001F0
F0000001F0
F0000000F0
E0000000F0
E0000000F0
E000000070
E000000070
E000000070
E000000070
E000000070
E000000070
E000000070
E000000070
E000000070
E000000070
E000000070
E000000070
E000000070
E000000070
E000000070
E000000070
E000000070
E000000070
E000000070
E000000070
E000000070
ENDCHAR
STARTCHAR 00C1
ENCODING 193
SWIDTH 416 0
DWIDTH 40 0
BBX 36 75 2 0
BITMAP
00003C0000
0000780000
0000F00000
0000F00000
0001E00000
0001C00000
0003C00000
0003800000
0000000000
0000000000
0000000000
0000000000
0000000000
001FFF0000
00FFFFE000
01FFFFF800
07F000FC00
0F80003E00
1F00000F00
3E00000780
3C000003C0
78000001C0
70000001E0
F0000000E0
E0000000E0
E0000000E0
E000000070
E000000070
E000000070
E000000070
E000000070
E000000070
E000000070
E000000070
E000000070
E000000070
E000000070
E000000070
E000000070
E000000070
E000000070
E01FFF0070
E0FFFFE070
E1FFFFF870
E7F000FC70
EF80003E70
FF00000F70
FE000007F0
FC000003F0
F8000001F0
F0000001F0
F0000000F0
E0000000F0
E0000000F0
E000000070
E000000070
E000000070
E000000070
E000000070
E000000070
E000000070
E000000070
E000000070
E000000070
E000000070
E000000070
E000000070
E000000070
E000000070
E000000070
E000000070
E000000070
E000000070
E000000070
E000000070
ENDCHAR
STARTCHAR 00C2
ENCODING 194
SWIDTH 416 0
DWIDTH 40 0
BBX 36 77 2 0
BITMAP
0001F00000
0001F80000
0003F80000
0007BC0000
00071E0000
000F1E0000
000E0F0000
001E0F0000
001C078000
0000000000
0000000000
0000000000
0000000000
0000000000
0000000000
001FFF0000
00FFFFE000
01FFFFF800
07F000FC00
0F80003E00
1F00000F00
3E00000780
3C000003C0
78000001C0
70000001E0
F0000000E0
E0000000E0
E0000000E0
E000000070
E000000070
E000000070
E000000070
E000000070
E000000070
E000000070
E000000070
E000000070
E000000070
E000000070
E000000070
E000000070
E000000070
E000000070
E01FFF0070
E0FFFFE070
E1FFFFF870
E7F000FC70
EF80003E70
FF00000F70
FE000007F0
FC000003F0
F8000001F0
F0000001F0
F0000000F0
E0000000F0
E0000000F0
E000000070
E000000070
E000000070
E000000070
E000000070
E000000070
E000000070
E000000070
E000000070
E000000070
E000000070
E000000070
E000000070
E000000070
E000000070
E000000070
E000000070
E000000070
E000000070
E000000070
E000000070
ENDCHAR
STARTCHAR 00C3
ENCODING 195
SWIDTH 416 0
DWIDTH 40 0
BBX 36 73 2 0
BITMAP
01001FC000
07807FF000
07C1FFF800
03FFF07C00
01FFC01C00
003F000000
0000000000
0000000000
0000000000
0000000000
0000000000
001FFF0000
00FFFFE000
01FFFFF800
07F000FC00
0F80003E00
1F00000F00
3E00000780
3C000003C0
78000001C0
70000001E0
F0000000E0
E0000000E0
E0000000E0
E000000070
E000000070
E000000070
E000000070
E000000070
E000000070
E000000070
E000000070
E000000070
E000000070
E000000070
E000000070
E000000070
E000000070
E000000070
E01FFF0070
E0FFFFE070
E1FFFFF870
E7F000FC70
EF80003E70
FF00000F70
FE000007F0
FC000003F0
F8000001F0
F0000001F0
F0000000F0
E0000000F0
E0000000F0
E000000070
E000000070
E000000070
E000000070
E000000070
E000000070
E000000070
E000000070
E000000070
E000000070
E000000070
E000000070
E000000070
E000000070
E000000070
E000000070
E000000070
E000000070
E000000070
E000000070
E000000070
ENDCHAR
STARTCHAR 00C4
ENCODING 196
SWIDTH 416 0
DWIDTH 40 0
BBX 36 74 2 0
BITMAP
003C0F0000
003E0F8000
003E0F8000
003E0F8000
003E0F8000
003C0F0000
0000000000
0000000000
0000000000
0000000000
0000000000
0000000000
001FFF0000
00FFFFE000
01FFFFF800
07F001FC00
0F80003E00
1F00000F00
3E00000780
3C000003C0
78000001C0
70000001E0
F0000000E0
E0000000E0
E0000000E0
E000000070
E000000070
E000000070
E000000070
E000000070
E000000070
E000000070
E000000070
E000000070
E000000070
E000000070
E000000070
E000000070
E000000070
E000000070
E01FFF0070
E0FFFFE070
E1FFFFF870
E7F001FC70
EF80003E70
FF00000F70
FE000007F0
FC000003F0
F8000001F0
F0000001F0
F0000000F0
E0000000F0
E0000000F0
E000000070
E000000070
E000000070
E000000070
E000000070
E000000070
E000000070
E000000070
E000000070
E000000070
E000000070
E000000070
E000000070
E000000070
E000000070
E000000070
E000000070
E000000070
E000000070
E000000070
E000000070
ENDCHAR
STARTCHAR 00C5
ENCODING 197
SWIDTH 416 0
DWIDTH 40 0
BBX 36 78 2 0
BITMAP
0001F00000
0003FC0000
0007FC0000
000F0E0000
000E0E0000
000E070000
000E070000
000E070000
000E0F0000
000F0E0000
0007FE0000
0003FC0000
0001F00000
0000000000
0000000000
0000000000
001FFF0000
00FFFFE000
01FFFFF800
07F000FC00
0F80003E00
1F00000F00
3E00000780
3C000003C0
78000001C0
70000001E0
F0000000E0
E0000000E0
E0000000E0
E000000070
E000000070
E000000070
E000000070
E000000070
E000000070
E000000070
E000000070
E000000070
E000000070
E000000070
E000000070
E000000070
E000000070
E000000070
E01FFF0070
E0FFFFE070
E1FFFFF870
E7F000FC70
EF80003E70
FF00000F70
FE000007F0
FC000003F0
F8000001F0
F0000001F0
F0000000F0
E0000000F0
E0000000F0
E000000070
E000000070
E000000070
E000000070
E000000070
E000000070
E000000070
E000000070
E000000070
E000000070
E000000070
E000000070
E000000070
E000000070
E000000070
E000000070
E000000070
E000000070
E000000070
E000000070
E000000070
ENDCHAR
STARTCHAR 00C6
ENCODING 198
SWIDTH 708 0
DWIDTH 68 0
BBX 64 62 2 0
BITMAP
001FFF00000FFFFF
00FFFFE0007FFFFF
01FFFFF000FFFFFF
07F000FC03F80000
0F80003E07C00000
1F00000F0F800000
3E0000079F000000
3C0000039E000000
78000001FC000000
70000001F8000000
F0000000F8000000
E0000000F0000000
E0000000F0000000
E000000070000000
E000000070000000
E000000070000000
E000000070000000
E000000070000000
E000000070000000
E000000070000000
E000000070000000
E000000070000000
E000000070000000
E000000070000000
E000000070000000
E000000070000000
E000000070000000
E000000070000000
E01FFF00700FFE00
E0FFFFE0707FFE00
E1FFFFF870FFFE00
E7F000FC73F80000
EF80003E77C00000
FF00000F7F800000
FE000007FF000000
FC000003FE000000
F8000001FC000000
F0000001F8000000
F0000000F8000000
E0000000F0000000
E0000000F0000000
E000000070000000
E000000070000000
E000000070000000
E000000070000000
E000000070000000
E000000070000000
E000000070000000
E000000070000000
E000000070000000
E000000070000000
E000000070000000
E000000070000000
E000000070000000
E000000070000000
E000000070000000
E000000070000000
E000000070000000
E000000070000000
E00000007FFFFFFF
E00000007FFFFFFF
E00000007FFFFFFF
ENDCHAR
STARTCHAR 00C7
ENCODING 199
SWIDTH 416 0
DWIDTH 40 0
BBX 35 77 2 -15
BITMAP
001FFF0000
00FFFFE000
01FFFFF000
07F001FC00
0F80003E00
1F00001F00
3E00000F80
3C00000780
78000003C0
70000001C0
F0000001E0
E0000000E0
E0000000E0
E0000000E0
E0000000E0
E0000000E0
E000000000
E000000000
E000000000
E000000000
E000000000
E000000000
E000000000
E000000000
E000000000
E000000000
E000000000
E000000000
E000000000
E000000000
E000000000
E000000000
E000000000
E000000000
E000000000
E000000000
E000000000
E000000000
E000000000
E000000000
E000000000
E000000000
E000000000
E000000000
E000000000
E000000000
E000000000
E0000000E0
E0000000E0
E0000000E0
E0000000E0
70000001E0
70000001C0
78000003C0
3C00000780
1E00000F80
1F00001F00
0F80003E00
07F001FC00
01FFFFF800
007FFFE000
001FFF0000
0000E00000
0000E00000
0000E00000
0000F80000
0000FE0000
0000FF0000
0000070000
0000078000
0000038000
0000038000
0000078000
0000870000
0001FF0000
0003FE0000
0000F80000
ENDCHAR
STARTCHAR 00C8
ENCODING 200
SWIDTH 375 0
DWIDTH 36 0
BBX 31 75 2 0
BITMAP
001E0000
000F0000
00070000
00078000
0003C000
0001C000
0001E000
0000E000
00000000
00000000
00000000
00000000
00000000
001FFFFE
007FFFFE
01FFFFFE
07F00000
0F800000
1F000000
1E000000
3C000000
78000000
70000000
70000000
E0000000
E0000000
E0000000
E0000000
E0000000
E0000000
E0000000
E0000000
E0000000
E0000000
E0000000
E0000000
E0000000
E0000000
E0000000
E0000000
E0000000
E01FFC00
E0FFFC00
E1FFFC00
E7F00000
EF800000
FF000000
FE000000
FC000000
F8000000
F0000000
F0000000
E0000000
E0000000
E0000000
E0000000
E0000000
E0000000
E0000000
E0000000
E0000000
E0000000
E0000000
E0000000
E0000000
E0000000
E0000000
E0000000
E0000000
E0000000
E0000000
E0000000
FFFFFFFE
FFFFFFFE
FFFFFFFE
ENDCHAR
STARTCHAR 00C9
ENCODING 201
SWIDTH 375 0
DWIDTH 36 0
BBX 31 75 2 0
BITMAP
0001E000
0001E000
0003C000
00038000
00078000
000F0000
000E0000
001E0000
00000000
00000000
00000000
00000000
00000000
001FFFFE
007FFFFE
01FFFFFE
07F00000
0F800000
1F000000
1E000000
3C000000
78000000
70000000
70000000
E0000000
E0000000
E0000000
E0000000
E0000000
E0000000
E0000000
E0000000
E0000000
E0000000
E0000000
E0000000
E0000000
E0000000
E0000000
E0000000
E0000000
E01FFC00
E0FFFC00
E1FFFC00
E7F00000
EF800000
FF000000
FE000000
FC000000
F8000000
F0000000
F0000000
E0000000
E0000000
E0000000
E0000000
E0000000
E0000000
E0000000
E0000000
E0000000
E0000000
E0000000
E0000000
E0000000
E0000000
E0000000
E0000000
E0000000
E0000000
E0000000
E0000000
FFFFFFFE
FFFFFFFE
FFFFFFFE
ENDCHAR
STARTCHAR 00CA
ENCODING 202
SWIDTH 375 0
DWIDTH 36 0
BBX 31 77 2 0
BITMAP
000F8000
000FC000
001FE000
001DE000
003CF000
0038F000
00787800
00F03C00
00E03C00
00000000
00000000
00000000
00000000
00000000
00000000
001FFFFE
007FFFFE
01FFFFFE
07F00000
0F800000
1F000000
1E000000
3C000000
78000000
70000000
70000000
E0000000
E0000000
E0000000
E0000000
E0000000
E0000000
E0000000
E0000000
E0000000
E0000000
E0000000
E0000000
E0000000
E0000000
E0000000
E0000000
E0000000
E01FFC00
E0FFFC00
E1FFFC00
E7F00000
EF800000
FF000000
FE000000
FC000000
F8000000
F0000000
F0000000
E0000000
E0000000
E0000000
E0000000
E0000000
E0000000
E0000000
E0000000
E0000000
E0000000
E0000000
E0000000
E0000000
E0000000
E0000000
E0000000
E0000000
E0000000
E0000000
E0000000
FFFFFFFE
FFFFFFFE
FFFFFFFE
ENDCHAR
STARTCHAR 00CB
ENCODING 203
SWIDTH 375 0
DWIDTH 36 0
BBX 31 74 2 0
BITMAP
00F03C00
00F83E00
00F83E00
00F83E00
00F83E00
00F03C00
00000000
00000000
00000000
00000000
00000000
00000000
001FFFFE
007FFFFE
01FFFFFE
07F00000
0F800000
1F000000
1E000000
3C000000
78000000
70000000
70000000
E0000000
E0000000
E0000000
E0000000
E0000000
E0000000
E0000000
E0000000
E0000000
E0000000
E0000000
E0000000
E0000000
E0000000
E0000000
E0000000
E0000000
E01FFC00
E0FFFC00
E1FFFC00
E7F00000
EF800000
FF000000
FE000000
FC000000
F8000000
F0000000
F0000000
E0000000
E0000000
E0000000
E0000000
E0000000
E0000000
E0000000
E0000000
E0000000
E0000000
E0000000
E0000000
E0000000
E0000000
E0000000
E0000000
E0000000
E0000000
E0000000
E0000000
FFFFFFFE
FFFFFFFE
FFFFFFFE
ENDCHAR
STARTCHAR 00CC
ENCODING 204
SWIDTH 125 0
DWIDTH 12 0
BBX 8 75 1 0
BITMAP
F0
78
38
3C
1E
0E
0F
07
00
00
00
00
00
7F
7F
7F
1C
1C
1C
1C
1C
1C
1C
1C
1C
1C
1C
1C
1C
1C
1C
1C
1C
1C
1C
1C
1C
1C
1C
1C
1C
1C
1C
1C
1C
1C
1C
1C
1C
1C
1C
1C
1C
1C
1C
1C
1C
1C
1C
1C
1C
1C
1C
1C
1C
1C
1C
1C
1C
1C
1C
1C
7F
7F
7F
ENDCHAR
STARTCHAR 00CD
ENCODING 205
SWIDTH 125 0
DWIDTH 12 0
BBX 8 75 1 0
BITMAP
0F
0F
1E
1C
3C
78
70
F0
00
00
00
00
00
7F
7F
7F
1C
1C
1C
1C
1C
1C
1C
1C
1C
1C
1C
1C
1C
1C
1C
1C
1C
1C
1C
1C
1C
1C
1C
1C
1C
1C
1C
1C
1C
1C
1C
1C
1C
1C
1C
1C
1C
1C
1C
1C
1C
1C
1C
1C
1C
1C
1C
1C
1C
1C
1C
1C
1C
1C
1C
1C
7F
7F
7F
ENDCHAR
STARTCHAR 00CE
ENCODING 206
SWIDTH 187 0
DWIDTH 18 0
BBX 15 77 -1 0
BITMAP
0780
0FC0
0FE0
1EE0
1CF0
3878
7878
703C
F01E
0000
0000
0000
0000
0000
0000
0FE0
0FE0
0FE0
0380
0380
0380
0380
0380
0380
0380
0380
0380
0380
0380
0380
0380
0380
0380
0380
0380
0380
0380
0380
0380
0380
0380
0380
0380
0380
0380
0380
0380
0380
0380
0380
0380
0380
0380
0380
0380
0380
0380
0380
0380
0380
0380
0380
0380
0380
0380
0380
0380
0380
0380
0380
0380
0380
0380
0380
0FE0
0FE0
0FE0
ENDCHAR
STARTCHAR 00CF
ENCODING 207
SWIDTH 177 0
DWIDTH 17 0
BBX 15 74 -1 0
BITMAP
701C
F83E
F83E
F83E
F83E
701C
0000
0000
0000
0000
0000
0000
0FE0
0FE0
0FE0
0380
0380
0380
0380
0380
0380
0380
0380
0380
0380
0380
0380
0380
0380
0380
0380
0380
0380
0380
0380
0380
0380
0380
0380
0380
0380
0380
0380
0380
0380
0380
0380
0380
0380
0380
0380
0380
0380
0380
0380
0380
0380
0380
0380
0380
0380
0380
0380
0380
0380
0380
0380
0380
0380
0380
0380
0FE0
0FE0
0FE0
ENDCHAR
STARTCHAR 00D0
ENCODING 208
SWIDTH 427 0
DWIDTH 41 0
BBX 43 62 -5 0
BITMAP
00FFFFFF0000
00FFFFFFE000
00FFFFFFF000
00E00001FC00
00E000003E00
00E000001F00
00E000000F00
00E000000780
00E000000380
00E0000001C0
00E0000001C0
00E0000001E0
00E0000000E0
00E0000000E0
00E0000000E0
00E0000000E0
00E0000000E0
00E0000000E0
00E0000000E0
00E0000000E0
00E0000000E0
E0E0000000E0
E0E0000000E0
F0E0000000E0
70E0000000E0
78E0000000E0
3CE0000000E0
1FFFFF0000E0
0FFFFFC000E0
03FFFFE000E0
00E001F000E0
00E000F800E0
00E0007800E0
00E0007800E0
00E0003C00E0
00E0003C00E0
00E0003C00E0
00E0000000E0
00E0000000E0
00E0000000E0
00E0000000E0
00E0000000E0
00E0000000E0
00E0000000E0
00E0000000E0
00E0000000E0
00E0000000E0
00E0000000E0
00E0000000E0
00E0000000E0
00E0000001E0
00E0000001C0
00E0000001C0
00E000000380
00E000000780
00E000000F00
00E000001F00
00E000003E00
00E00001FC00
00FFFFFFF000
00FFFFFFE000
00FFFFFF0000
ENDCHAR
STARTCHAR 00D1
ENCODING 209
SWIDTH 416 0
DWIDTH 40 0
BBX 36 73 2 0
BITMAP
01001FC000
07807FF000
07C1FFF800
03FFF07C00
01FFC01C00
007F000000
0000000000
0000000000
0000000000
0000000000
0000000000
E000000070
E000000070
F000000070
F000000070
F800000070
F800000070
FC00000070
FE00000070
EE00000070
EF00000070
E700000070
E780000070
E380000070
E3C0000070
E1C0000070
E0E0000070
E0E0000070
E070000070
E078000070
E038000070
E03C000070
E01C000070
E01E000070
E00E000070
E00F000070
E007000070
E003800070
E003800070
E001C00070
E001E00070
E000E000F0
E000F000F0
E0007000F0
E0007800F0
E0003800F0
E0003C00F0
E0001C00F0
E0001E00F0
E0000E00F0
E0000700F0
E0000700F0
E0000380F0
E00003C0F0
E00001C0F0
E00001E0F0
E00000E0F0
E00000F0F0
E0000070F0
E0000078F0
E0000038F0
E000001CF0
E000001CF0
E000000EF0
E000000FF0
E0000007F0
E0000007F0
E0000003F0
E0000003F0
E0000001F0
E0000001F0
E0000000F0
E0000000F0
ENDCHAR
STARTCHAR 00D2
ENCODING 210
SWIDTH 416 0
DWIDTH 40 0
BBX 36 75 2 0
BITMAP
0003800000
0003C00000
0001E00000
0000E00000
0000F00000
0000700000
0000780000
00003C0000
0000000000
0000000000
0000000000
0000000000
0000000000
001FFF0000
00FFFFE000
01FFFFF800
07F000FC00
0F80003E00
1F00000F00
3E00000780
3C000003C0
78000001C0
70000001E0
F0000000E0
E0000000E0
E0000000E0
E000000070
E000000070
E000000070
E000000070
E000000070
E000000070
E000000070
E000000070
E000000070
E000000070
E000000070
E000000070
E000000070
E000000070
E000000070
E000000070
E000000070
E000000070
E000000070
E000000070
E000000070
E000000070
E000000070
E000000070
E000000070
E000000070
E000000070
E000000070
E000000070
E000000070
E000000070
E000000070
E000000070
E000000070
E000000070
E000000070
E0000000F0
E0000000E0
70000000E0
70000001E0
78000001C0
3C000003C0
1E00000780
1F00000F00
0F80003E00
07F000FC00
01FFFFF800
007FFFE000
001FFF0000
ENDCHAR
STARTCHAR 00D3
ENCODING 211
SWIDTH 416 0
DWIDTH 40 0
BBX 36 75 2 0
BITMAP
00003C0000
0000780000
0000F00000
0000F00000
0001E00000
0001C00000
0003C00000
0003800000
0000000000
0000000000
0000000000
0000000000
0000000000
001FFF0000
00FFFFE000
01FFFFF800
07F000FC00
0F80003E00
1F00000F00
3E00000780
3C000003C0
78000001C0
70000001E0
F0000000E0
E0000000E0
E0000000E0
E000000070
E000000070
E000000070
E000000070
E000000070
E000000070
E000000070
E000000070
E000000070
E000000070
E000000070
E000000070
E000000070
E000000070
E000000070
E000000070
E000000070
E000000070
E000000070
E000000070
E000000070
E000000070
E000000070
E000000070
E000000070
E000000070
E000000070
E000000070
E000000070
E000000070
E000000070
E000000070
E000000070
E000000070
E000000070
E000000070
E0000000F0
E0000000E0
70000000E0
70000001E0
78000001C0
3C000003C0
1E00000780
1F00000F00
0F80003E00
07F000FC00
01FFFFF800
007FFFE000
001FFF0000
ENDCHAR
STARTCHAR 00D4
ENCODING 212
SWIDTH 416 0
DWIDTH 40 0
BBX 36 77 2 0
BITMAP
0001F00000
0003F00000
0003F80000
0007BC0000
000F3C0000
000E1E0000
001E1E0000
001C0F0000
003C0F8000
0000000000
0000000000
0000000000
0000000000
0000000000
0000000000
001FFF0000
00FFFFE000
01FFFFF800
07F000FC00
0F80003E00
1F00000F00
3E00000780
3C000003C0
78000001C0
70000001E0
F0000000E0
E0000000E0
E0000000E0
E000000070
E000000070
E000000070
E000000070
E000000070
E000000070
E000000070
E000000070
E000000070
E000000070
E000000070
E000000070
E000000070
E000000070
E000000070
E000000070
E000000070
E000000070
E000000070
E000000070
E000000070
E000000070
E000000070
E000000070
E000000070
E000000070
E000000070
E000000070
E000000070
E000000070
E000000070
E000000070
E000000070
E000000070
E000000070
E000000070
E0000000F0
E0000000E0
70000000E0
70000001E0
78000001C0
3C000003C0
1E00000780
1F00000F00
0F80003E00
07F000FC00
01FFFFF800
007FFFE000
001FFF0000
ENDCHAR
STARTCHAR 00D5
ENCODING 213
SWIDTH 416 0
DWIDTH 40 0
BBX 36 73 2 0
BITMAP
01001FC000
07807FF000
07C1FFF800
03FFF07C00
01FFC01C00
003F000000
0000000000
0000000000
0000000000
0000000000
0000000000
001FFF0000
00FFFFE000
01FFFFF800
07F000FC00
0F80003E00
1F00000F00
3E00000780
3C000003C0
78000001C0
70000001E0
F0000000E0
E0000000E0
E0000000E0
E000000070
E000000070
E000000070
E000000070
E000000070
E000000070
E000000070
E000000070
E000000070
E000000070
E000000070
E000000070
E000000070
E000000070
E000000070
E000000070
E000000070
E000000070
E000000070
E000000070
E000000070
E000000070
E000000070
E000000070
E000000070
E000000070
E000000070
E000000070
E000000070
E000000070
E000000070
E000000070
E000000070
E000000070
E000000070
E000000070
E0000000F0
E0000000E0
70000000E0
70000001E0
78000001C0
3C000003C0
1E00000780
1F00000F00
0F80003E00
07F000FC00
01FFFFF800
007FFFE000
001FFF0000
ENDCHAR
STARTCHAR 00D6
ENCODING 214
SWIDTH 416 0
DWIDTH 40 0
BBX 36 74 2 0
BITMAP
003C0F0000
003E0F8000
003E0F8000
003E0F8000
003E0F8000
003C0F0000
0000000000
0000000000
0000000000
0000000000
0000000000
0000000000
001FFF0000
00FFFFE000
01FFFFF800
07F000FC00
0F80003E00
1F00000F00
3E00000780
3C000003C0
78000001C0
70000001E0
F0000000E0
E0000000E0
E0000000E0
E000000070
E000000070
E000000070
E000000070
E000000070
E000000070
E000000070
E000000070
E000000070
E000000070
E000000070
E000000070
E000000070
E000000070
E000000070
E000000070
E000000070
E000000070
E000000070
E000000070
E000000070
E000000070
E000000070
E000000070
E000000070
E000000070
E000000070
E000000070
E000000070
E000000070
E000000070
E000000070
E000000070
E000000070
E000000070
E000000070
E0000000F0
E0000000E0
70000000E0
70000001E0
78000001C0
3C000003C0
1E00000780
1F00000F00
0F80003E00
07F000FC00
01FFFFF800
007FFFE000
001FFF0000
ENDCHAR
STARTCHAR 00D8
ENCODING 216
SWIDTH 458 0
DWIDTH 44 0
BBX 39 62 1 1
BITMAP
0007FFC00E
003FFFF81E
007FFFFC1C
01FC007F38
03E0000FF8
07C00007F0
07800003F0
0F000001E0
0E000001E0
1C000003F0
1C000003F0
3C000007F8
3800000738
3800000F38
3800000E38
3800001C38
3800003C38
3800003838
3800007838
3800007038
380000F038
380001E038
380001C038
380003C038
3800038038
3800078038
3800070038
38000E0038
38001E0038
38001C0038
38003C0038
3800380038
3800780038
3800F00038
3800E00038
3801E00038
3801C00038
3803C00038
3803800038
3807000038
380F000038
380E000038
381E000038
381C000038
383C000038
3878000038
3870000038
38F0000038
38E0000038
39E0000038
3DC0000078
1F80000070
1F80000070
1F000000E0
0F000001E0
0F800003C0
1FC0000780
3FE0000F80
39FC007E00
78FFFFFC00
703FFFF000
F007FFC000
ENDCHAR
STARTCHAR 00D9
ENCODING 217
SWIDTH 416 0
DWIDTH 40 0
BBX 36 75 2 0
BITMAP
0003800000
0003C00000
0001E00000
0000E00000
0000F00000
0000700000
0000780000
00003C0000
0000000000
0000000000
0000000000
0000000000
0000000000
E000000070
E000000070
E000000070
E000000070
E000000070
E000000070
E000000070
E000000070
E000000070
E000000070
E000000070
E000000070
E000000070
E000000070
E000000070
E000000070
E000000070
E000000070
E000000070
E000000070
E000000070
E000000070
E000000070
E000000070
E000000070
E000000070
E000000070
E000000070
E000000070
E000000070
E000000070
E000000070
E000000070
E000000070
E000000070
E000000070
E000000070
E000000070
E000000070
E000000070
E000000070
E000000070
E000000070
E000000070
E000000070
E000000070
E000000070
E000000070
E000000070
E0000000E0
E0000000E0
70000000E0
70000001E0
78000001C0
3C000003C0
1E00000780
1F00000F00
0F80003E00
07F000FC00
01FFFFF800
007FFFE000
001FFF0000
ENDCHAR
STARTCHAR 00DA
ENCODING 218
SWIDTH 416 0
DWIDTH 40 0
BBX 36 75 2 0
BITMAP
00003C0000
0000780000
0000F00000
0000F00000
0001E00000
0001C00000
0003C00000
0007800000
0000000000
0000000000
0000000000
0000000000
0000000000
E000000070
E000000070
E000000070
E000000070
E000000070
E000000070
E000000070
E000000070
E000000070
E000000070
E000000070
E000000070
E000000070
E000000070
E000000070
E000000070
E000000070
E000000070
E000000070
E000000070
E000000070
E000000070
E000000070
E000000070
E000000070
E000000070
E000000070
E000000070
E000000070
E000000070
E000000070
E000000070
E000000070
E000000070
E000000070
E000000070
E000000070
E000000070
E000000070
E000000070
E000000070
E000000070
E000000070
E000000070
E000000070
E000000070
E000000070
E000000070
E000000070
E0000000E0
E0000000E0
70000000E0
70000001E0
78000001C0
3C000003C0
1E00000780
1F00000F00
0F80003E00
07F000FC00
01FFFFF800
007FFFE000
001FFF0000
ENDCHAR
STARTCHAR 00DB
ENCODING 219
SWIDTH 416 0
DWIDTH 40 0
BBX 36 77 2 0
BITMAP
0001F00000
0003F00000
0003F80000
0007BC0000
000F3C0000
000E1E0000
001E1E0000
001C0F0000
003C0F8000
0000000000
0000000000
0000000000
0000000000
0000000000
0000000000
E000000070
E000000070
E000000070
E000000070
E000000070
E000000070
E000000070
E000000070
E000000070
E000000070
E000000070
E000000070
E000000070
E000000070
E000000070
E000000070
E000000070
E000000070
E000000070
E000000070
E000000070
E000000070
E000000070
E000000070
E000000070
E000000070
E000000070
E000000070
E000000070
E000000070
E000000070
E000000070
E000000070
E000000070
E000000070
E000000070
E000000070
E000000070
E000000070
E000000070
E000000070
E000000070
E000000070
E000000070
E000000070
E000000070
E000000070
E000000070
E000000070
E0000000E0
E0000000E0
70000000E0
70000001E0
78000001C0
3C000003C0
1E00000780
1F00000F00
0F80003E00
07F000FC00
01FFFFF800
007FFFE000
001FFF0000
ENDCHAR
STARTCHAR 00DC
ENCODING 220
SWIDTH 416 0
DWIDTH 40 0
BBX 36 74 2 0
BITMAP
003C0F0000
003E0F8000
003E0F8000
003E0F8000
003E0F8000
003C0F0000
0000000000
0000000000
0000000000
0000000000
0000000000
0000000000
E000000070
E000000070
E000000070
E000000070
E000000070
E000000070
E000000070
E000000070
E000000070
E000000070
E000000070
E000000070
E000000070
E000000070
E000000070
E000000070
E000000070
E000000070
E000000070
E000000070
E000000070
E000000070
E000000070
E000000070
E000000070
E000000070
E000000070
E000000070
E000000070
E000000070
E000000070
E000000070
E000000070
E000000070
E000000070
E000000070
E000000070
E000000070
E000000070
E000000070
E000000070
E000000070
E000000070
E000000070
E000000070
E000000070
E000000070
E000000070
E000000070
E0000000E0
E0000000E0
70000000E0
70000001E0
78000001C0
3C000003C0
1E00000780
1F00000F00
0F80003E00
07F000FC00
01FFFFF800
007FFFE000
001FFF0000
ENDCHAR
STARTCHAR 00DD
ENCODING 221
SWIDTH 406 0
DWIDTH 39 0
BBX 34 75 2 0
BITMAP
0000780000
0000F00000
0000E00000
0001E00000
0003C00000
0003800000
0007800000
0007000000
0000000000
0000000000
0000000000
0000000000
0000000000
E0000001C0
E0000001C0
E0000001C0
E0000001C0
E0000001C0
E0000001C0
E0000001C0
E0000001C0
E0000001C0
E0000001C0
E0000001C0
E0000001C0
E0000001C0
E0000001C0
E0000001C0
E0000001C0
E0000001C0
E0000001C0
E0000001C0
E0000001C0
E0000001C0
E0000001C0
E0000001C0
E0000001C0
E0000001C0
E0000001C0
E0000003C0
E000000380
F000000780
7800000F00
3E00003F00
1FF007FE00
0FFC1FFC00
07FF3FE000
001F7C0000
0007F00000
0007E00000
0003C00000
0001C00000
0001C00000
0001C00000
0001C00000
0001C00000
0001C00000
0001C00000
0001C00000
0001C00000
0001C00000
0001C00000
0001C00000
0001C00000
0001C00000
0001C00000
0001C00000
0001C00000
0001C00000
0001C00000
0001C00000
0001C00000
0001C00000
0001C00000
0001C00000
ENDCHAR
STARTCHAR 00DE
ENCODING 222
SWIDTH 375 0
DWIDTH 36 0
BBX 31 62 2 0
BITMAP
E0000000
E0000000
E0000000
E0000000
E0000000
E0000000
E0000000
E0000000
E0000000
FFFFE000
FFFFFC00
FFFFFF00
E0001F80
E00007C0
E00001E0
E00000F0
E0000070
E0000038
E000003C
E000001C
E000001C
E000001C
E000000E
E000000E
E000000E
E000000E
E000000E
E000000E
E000000E
E000000E
E000000E
E000000E
E000000E
E000000E
E000000E
E000000E
E000000E
E000000E
E000000E
E000000E
E000001C
E000001C
E000001C
E000003C
E0000038
E0000078
E00000F0
E00001E0
E00007C0
E0001F80
FFFFFF00
FFFFFC00
FFFFF000
E0000000
E0000000
E0000000
E0000000
E0000000
E0000000
E0000000
E0000000
E0000000
ENDCHAR
STARTCHAR 00DF
ENCODING 223
SWIDTH 406 0
DWIDTH 39 0
BBX 34 68 2 -6
BITMAP
001FE00000
007FFC0000
01FFFF0000
07F01F8000
0F8007C000
1F0001E000
1E0000F000
3C00007800
7800003800
7000003C00
7000001C00
E000001C00
E000001C00
E000000E00
E000000E00
E000000E00
E000000E00
E000000E00
E000001C00
E000001C00
E000001C00
E000003C00
E000003800
E000007800
E00000F000
E00001E000
E00007C000
E0001F8000
E001FF0000
E001FF8000
E001FFE000
E00003F000
E00000F800
E000003C00
E000001E00
E000000F00
E000000700
E000000780
E000000380
E000000380
E0000003C0
E0000001C0
E0000001C0
E0000001C0
E0000001C0
E0000001C0
E0000001C0
E0000001C0
E0000001C0
E0000001C0
E0000001C0
E0000001C0
E0000001C0
E0000001C0
E0000001C0
E0000003C0
E000000380
E000000380
E000000780
E000000700
E000000F00
E000001E00
0000003C00
000000F800
000003F000
007FFFE000
007FFF8000
007FFC0000
ENDCHAR
STARTCHAR 00E0
ENCODING 224
SWIDTH 354 0
DWIDTH 34 0
BBX 29 56 2 0
BITMAP
001E0000
000E0000
000F0000
00078000
00038000
0003C000
0001C000
0001E000
00000000
00000000
00000000
00000000
003FFE00
01FFFF80
03FFFFC0
0FC003E0
1F0000E0
3E0000F0
3C000070
78000078
F0000038
E0000038
00000038
00000078
00000078
000000F8
000000F8
000003F8
001FFFF8
00FFFFB8
01FFFE38
07F00038
0F800038
1F000038
3E000038
3C000038
78000038
70000038
F0000038
E0000038
E0000038
E0000038
E0000038
E0000070
E0000070
E0000070
E00000F0
E00000E0
E00001E0
E00003C0
70000780
78001F00
3C007E00
1FFFFC00
0FFFF000
03FFC000
ENDCHAR
STARTCHAR 00E1
ENCODING 225
SWIDTH 354 0
DWIDTH 34 0
BBX 29 56 2 0
BITMAP
0001E000
0003C000
0003C000
00078000
000F0000
000E0000
001E0000
00000000
00000000
00000000
00000000
00000000
003FFE00
01FFFF80
03FFFFC0
0FC003E0
1F0000E0
3E0000F0
3C000070
78000078
F0000038
E0000038
00000038
00000078
00000078
000000F8
000000F8
000003F8
001FFFF8
00FFFFB8
01FFFE38
07F00038
0F800038
1F000038
3E000038
3C000038
78000038
70000038
F0000038
E0000038
E0000038
E0000038
E0000038
E0000070
E0000070
E0000070
E00000F0
E00000E0
E00001E0
E00003C0
70000780
78001F00
3C007E00
1FFFFC00
0FFFF000
03FFC000
ENDCHAR
STARTCHAR 00E2
ENCODING 226
SWIDTH 354 0
DWIDTH 34 0
BBX 29 58 2 0
BITMAP
000F8000
000FC000
001FC000
001DE000
003CF000
0038F000
00707800
00F07800
00E03C00
01003E00
00000000
00000000
00000000
00000000
003FFE00
01FFFF80
03FFFFC0
0FC003E0
1F0000E0
3E0000F0
3C000070
78000078
F0000038
E0000038
00000038
00000078
00000078
000000F8
000000F8
000003F8
001FFFF8
00FFFFB8
01FFFE38
07F00038
0F800038
1F000038
3E000038
3C000038
78000038
70000038
F0000038
E0000038
E0000038
E0000038
E0000038
E0000070
E0000070
E0000070
E00000F0
E00000E0
E00001E0
E00003C0
70000780
78001F00
3C007E00
1FFFFC00
0FFFF000
03FFC000
ENDCHAR
STARTCHAR 00E3
ENCODING 227
SWIDTH 354 0
DWIDTH 34 0
BBX 29 54 2 0
BITMAP
00007E00
1C01FF80
1E07FFC0
0FFFC3E0
07FF00F0
01F80040
00000000
00000000
00000000
00000000
003FFE00
01FFFF80
03FFFFC0
0FC003E0
1F0000E0
3E0000F0
3C000070
78000078
F0000038
E0000038
00000038
00000078
00000078
000000F8
000000F8
000003F8
001FFFF8
00FFFFB8
01FFFE38
07F00038
0F800038
1F000038
3E000038
3C000038
78000038
70000038
F0000038
E0000038
E0000038
E0000038
E0000038
E0000070
E0000070
E0000070
E00000F0
E00000E0
E00001E0
E00003C0
70000780
78001F00
3C007E00
1FFFFC00
0FFFF000
03FFC000
ENDCHAR
STARTCHAR 00E4
ENCODING 228
SWIDTH 354 0
DWIDTH 34 0
BBX 29 55 2 0
BITMAP
00F03C00
00F83E00
00F83E00
00F83E00
00F83E00
00F03C00
00000000
00000000
00000000
00000000
00000000
003FFE00
01FFFF80
03FFFFC0
0FC003E0
1F0000E0
3E0000F0
3C000070
78000078
F0000038
E0000038
00000038
00000078
00000078
000000F8
000000F8
000003F8
001FFFF8
00FFFFB8
01FFFE38
07F00038
0F800038
1F000038
3E000038
3C000038
78000038
70000038
F0000038
E0000038
E0000038
E0000038
E0000038
E0000070
E0000070
E0000070
E00000F0
E00000E0
E00001E0
E00003C0
70000780
78001F00
3C007E00
1FFFFC00
0FFFF000
03FFC000
ENDCHAR
STARTCHAR 00E5
ENCODING 229
SWIDTH 354 0
DWIDTH 34 0
BBX 29 58 2 0
BITMAP
0007C000
001FF000
003FF800
00783800
00703C00
00701C00
00701C00
00703C00
00787800
003FF800
001FF000
0007C000
00000000
00000000
003FFE00
01FFFF80
03FFFFC0
0FC003E0
1F0000E0
3E0000F0
3C000070
78000078
F0000038
E0000038
00000038
00000078
00000078
000000F8
000000F8
000003F8
001FFFF8
00FFFFB8
01FFFE38
07F00038
0F800038
1F000038
3E000038
3C000038
78000038
70000038
F0000038
E0000038
E0000038
E0000038
E0000038
E0000070
E0000070
E0000070
E00000F0
E00000E0
E00001E0
E00003C0
70000780
78001F00
3C007E00
1FFFFC00
0FFFF000
03FFC000
ENDCHAR
STARTCHAR 00E6
ENCODING 230
SWIDTH 645 0
DWIDTH 62 0
BBX 57 44 2 0
BITMAP
003FFE0003F80000
01FFFF801FFF0000
03FFFFC07FFFC000
0FC003E0FC07E000
1F0000F1E001F000
3E0000F3C0007800
3C00007F80003C00
7800007F00001C00
F000003E00000E00
E000003C00000E00
0000003C00000700
0000007800000700
0000007800000300
000000F800000380
000000F800000380
000003F800000380
001FFFF800000380
00FFFFB800000380
01FFFE3807FFFF80
07F000383FFFFF80
0F800038FFFFFF80
1F000039F8000000
3E00003BE0000000
3C00003F80000000
7800003F00000000
7000003E00000000
F000003E00000000
E000003C00000000
E000003C00000380
E000003800000380
E000003800000380
E000007800000780
E000007800000700
E000007800000700
E00000FC00000F00
E00000EE00000E00
E00001EE00001E00
E00003C700003C00
7000078380007800
78001F81E001F000
3C007E00F807E000
1FFFFC007FFFC000
0FFFF0001FFF0000
03FFC00007F80000
ENDCHAR
STARTCHAR 00E7
ENCODING 231
SWIDTH 375 0
DWIDTH 36 0
BBX 31 59 2 -15
BITMAP
001FE000
007FFC00
01FFFF00
07F01F80
0F8007C0
1F0001E0
1E0000F0
3C000070
78000078
70000038
7000003C
E000001C
E000001C
E000001E
E000000E
E000000E
E0000000
E0000000
E0000000
E0000000
E0000000
E0000000
E0000000
E0000000
E0000000
E0000000
E0000000
E0000000
E0000000
E000000E
E000001E
E000001E
E000001C
7000001C
7000003C
78000078
3C000078
1E0000F0
1F0001E0
0F8007E0
07F01FC0
01FFFF80
007FFE00
001FF800
00038000
00038000
00038000
0007C000
0007F000
0007F800
00003800
00001C00
00001C00
00001C00
00003C00
00043800
000FF800
000FF000
0007C000
ENDCHAR
STARTCHAR 00E8
ENCODING 232
SWIDTH 375 0
DWIDTH 36 0
BBX 31 56 2 0
BITMAP
000F0000
000F0000
00078000
0003C000
0003C000
0001E000
0000E000
0000F000
00000000
00000000
00000000
00000000
001FE000
007FFC00
01FFFF00
07F01F80
0F8007C0
1F0003E0
1E0000F0
3C0000F0
78000078
70000038
7000003C
E000001C
E000001C
E000001E
E000000E
E000000E
E000000E
E000000E
E01FFFFE
E0FFFFFE
E3FFFFFE
E7E00000
EF800000
FE000000
FC000000
F8000000
F8000000
F0000000
E000000E
E000000E
E000000E
E000001E
E000001C
6000001C
7000003C
78000038
38000078
1C0000F0
1E0001E0
0F8007C0
07E01F80
01FFFF00
00FFFC00
001FE000
ENDCHAR
STARTCHAR 00E9
ENCODING 233
SWIDTH 375 0
DWIDTH 36 0
BBX 31 56 2 0
BITMAP
0000F000
0001E000
0001E000
0003C000
00038000
00078000
000F0000
000E0000
00000000
00000000
00000000
00000000
001FE000
007FFC00
01FFFF00
07F01F80
0F8007C0
1F0003E0
1E0000F0
3C0000F0
78000078
70000038
7000003C
E000001C
E000001C
E000001E
E000000E
E000000E
E000000E
E000000E
E01FFFFE
E0FFFFFE
E3FFFFFE
E7E00000
EF800000
FE000000
FC000000
F8000000
F8000000
F0000000
E000000E
E000000E
E000000E
E000001E
E000001C
6000001C
7000003C
78000038
38000078
1C0000F0
1E0001E0
0F8007C0
07E01F80
01FFFF00
00FFFC00
001FE000
ENDCHAR
STARTCHAR 00EA
ENCODING 234
SWIDTH 375 0
DWIDTH 36 0
BBX 31 58 2 0
BITMAP
0007C000
0007E000
000FE000
000EF000
001EF800
003C7800
00383C00
00783C00
00701E00
00801F00
00000000
00000000
00000000
00000000
001FE000
007FFC00
01FFFF00
07F01F80
0F8007C0
1F0003E0
1E0000F0
3C0000F0
78000078
70000038
7000003C
E000001C
E000001C
E000001E
E000000E
E000000E
E000000E
E000000E
E01FFFFE
E0FFFFFE
E3FFFFFE
E7E00000
EF800000
FE000000
FC000000
F8000000
F8000000
F0000000
E000000E
E000000E
E000000E
E000001E
E000001C
6000001C
7000003C
78000038
38000078
1C0000F0
1E0001E0
0F8007C0
07E01F80
01FFFF00
00FFFC00
001FE000
ENDCHAR
STARTCHAR 00EB
ENCODING 235
SWIDTH 375 0
DWIDTH 36 0
BBX 31 55 2 0
BITMAP
00781E00
007C1F00
007C1F00
007C1F00
007C1F00
00781E00
00000000
00000000
00000000
00000000
00000000
001FE000
007FFC00
01FFFF00
07F01F80
0F8007C0
1F0003E0
1E0000F0
3C0000F0
78000078
70000038
7000003C
E000001C
E000001C
E000001E
E000000E
E000000E
E000000E
E000000E
E01FFFFE
E0FFFFFE
E3FFFFFE
E7E00000
EF800000
FE000000
FC000000
F8000000
F8000000
F0000000
E000000E
E000000E
E000000E
E000001E
E000001C
6000001C
7000003C
78000038
38000078
1C0000F0
1E0001E0
0F8007C0
07E01F80
01FFFF00
00FFFC00
001FE000
ENDCHAR
STARTCHAR 00EC
ENCODING 236
SWIDTH 83 0
DWIDTH 8 0
BBX 8 56 0 0
BITMAP
F0
70
78
3C
3C
1E
0E
0F
00
00
00
00
38
38
38
38
38
38
38
38
38
38
38
38
38
38
38
38
38
38
38
38
38
38
38
38
38
38
38
38
38
38
38
38
38
38
38
38
38
38
38
38
38
38
38
38
ENDCHAR
STARTCHAR 00ED
ENCODING 237
SWIDTH 83 0
DWIDTH 8 0
BBX 8 56 0 0
BITMAP
0F
0E
1E
3C
38
78
70
F0
00
00
00
00
38
38
38
38
38
38
38
38
38
38
38
38
38
38
38
38
38
38
38
38
38
38
38
38
38
38
38
38
38
38
38
38
38
38
38
38
38
38
38
38
38
38
38
38
ENDCHAR
STARTCHAR 00EE
ENCODING 238
SWIDTH 83 0
DWIDTH 8 0
BBX 16 58 -4 0
BITMAP
03C0
07E0
07F0
0FF0
1E78
1C78
3C3C
783E
701E
800F
0000
0000
0000
0000
0380
0380
0380
0380
0380
0380
0380
0380
0380
0380
0380
0380
0380
0380
0380
0380
0380
0380
0380
0380
0380
0380
0380
0380
0380
0380
0380
0380
0380
0380
0380
0380
0380
0380
0380
0380
0380
0380
0380
0380
0380
0380
0380
0380
ENDCHAR
STARTCHAR 00EF
ENCODING 239
SWIDTH 83 0
DWIDTH 8 0
BBX 15 55 -3 0
BITMAP
F03C
F83C
F83E
F83E
F83C
F03C
0000
0000
0000
0000
0000
0700
0700
0700
0700
0700
0700
0700
0700
0700
0700
0700
0700
0700
0700
0700
0700
0700
0700
0700
0700
0700
0700
0700
0700
0700
0700
0700
0700
0700
0700
0700
0700
0700
0700
0700
0700
0700
0700
0700
0700
0700
0700
0700
0700
ENDCHAR
STARTCHAR 00F1
ENCODING 241
SWIDTH 354 0
DWIDTH 34 0
BBX 29 54 2 0
BITMAP
00007E00
1C01FF80
1E07FFC0
1FFFC3E0
07FF00F0
03FC0040
00000000
00000000
00000000
00000000
001FE000
00FFF800
01FFFE00
07F03F00
0F800780
1F0003C0
1E0001C0
3C0000E0
780000E0
70000070
70000070
E0000070
E0000078
E0000038
E0000038
E0000038
E0000038
E0000038
E0000038
E0000038
E0000038
E0000038
E0000038
E0000038
E0000038
E0000038
E0000038
E0000038
E0000038
E0000038
E0000038
E0000038
E0000038
E0000038
E0000038
E0000038
E0000038
E0000038
E0000038
E0000038
E0000038
E0000038
E0000038
E0000038
ENDCHAR
STARTCHAR 00F2
ENCODING 242
SWIDTH 375 0
DWIDTH 36 0
BBX 31 56 2 0
BITMAP
000F0000
000F0000
00078000
0003C000
0003C000
0001E000
0000E000
0000F000
00000000
00000000
00000000
00000000
001FE000
007FFC00
01FFFF00
07F01F80
0F8007C0
1F0001E0
1E0000F0
3C000070
78000038
7000003C
7000001C
E000001C
E000001C
E000000E
E000000E
E000000E
E000000E
E000000E
E000000E
E000000E
E000000E
E000000E
E000000E
E000000E
E000000E
E000000E
E000000E
E000000E
E000000E
E000000E
E000000E
E000001C
E000001C
7000001C
7000003C
78000038
3C000078
1E0000F0
1F0001E0
0F8007C0
07F01F80
01FFFF00
00FFFC00
001FE000
ENDCHAR
STARTCHAR 00F3
ENCODING 243
SWIDTH 375 0
DWIDTH 36 0
BBX 31 56 2 0
BITMAP
0000F000
0001E000
0001C000
0003C000
00078000
00070000
000F0000
00000000
00000000
00000000
00000000
00000000
001FE000
007FFC00
01FFFF00
07F01F80
0F8007C0
1F0001E0
1E0000F0
3C000070
78000038
7000003C
7000001C
E000001C
E000001C
E000000E
E000000E
E000000E
E000000E
E000000E
E000000E
E000000E
E000000E
E000000E
E000000E
E000000E
E000000E
E000000E
E000000E
E000000E
E000000E
E000000E
E000000E
E000001C
E000001C
7000001C
7000003C
78000038
3C000078
1E0000F0
1F0001E0
0F8007C0
07F01F80
01FFFF00
00FFFC00
001FE000
ENDCHAR
STARTCHAR 00F4
ENCODING 244
SWIDTH 375 0
DWIDTH 36 0
BBX 31 58 2 0
BITMAP
0007C000
0007E000
000FE000
000EF000
001EF800
003C7800
00383C00
00783C00
00701E00
00801F00
00000000
00000000
00000000
00000000
001FE000
007FFC00
01FFFF00
07F01F80
0F8007C0
1F0001E0
1E0000F0
3C000070
78000038
7000003C
7000001C
E000001C
E000001C
E000000E
E000000E
E000000E
E000000E
E000000E
E000000E
E000000E
E000000E
E000000E
E000000E
E000000E
E000000E
E000000E
E000000E
E000000E
E000000E
E000000E
E000000E
E000001C
E000001C
7000001C
7000003C
78000038
3C000078
1E0000F0
1F0001E0
0F8007C0
07F01F80
01FFFF00
00FFFC00
001FE000
ENDCHAR
STARTCHAR 00F5
ENCODING 245
SWIDTH 375 0
DWIDTH 36 0
BBX 31 54 2 0
BITMAP
00003F00
0E00FFC0
0F03FFE0
0FFFE1F0
03FF8070
00FC0020
00000000
00000000
00000000
00000000
001FE000
007FFC00
01FFFF00
07F01F80
0F8007C0
1F0001E0
1E0000F0
3C000070
78000038
7000003C
7000001C
E000001C
E000001C
E000000E
E000000E
E000000E
E000000E
E000000E
E000000E
E000000E
E000000E
E000000E
E000000E
E000000E
E000000E
E000000E
E000000E
E000000E
E000000E
E000000E
E000000E
E000001C
E000001C
7000001C
7000003C
78000038
3C000078
1E0000F0
1F0001E0
0F8007C0
07F01F80
01FFFF00
00FFFC00
001FE000
ENDCHAR
STARTCHAR 00F6
ENCODING 246
SWIDTH 375 0
DWIDTH 36 0
BBX 31 55 2 0
BITMAP
00781E00
007C1F00
007C1F00
007C1F00
007C1F00
00781E00
00000000
00000000
00000000
00000000
00000000
001FE000
007FFC00
01FFFF00
07F01F80
0F8007C0
1F0001E0
1E0000F0
3C000070
78000038
7000003C
7000001C
E000001C
E000001C
E000000E
E000000E
E000000E
E000000E
E000000E
E000000E
E000000E
E000000E
E000000E
E000000E
E000000E
E000000E
E000000E
E000000E
E000000E
E000000E
E000000E
E000000E
E000001C
E000001C
7000001C
7000003C
78000038
3C000078
1E0000F0
1F0001E0
0F8007C0
07F01F80
01FFFF00
00FFFC00
001FE000
ENDCHAR
STARTCHAR 00F8
ENCODING 248
SWIDTH 375 0
DWIDTH 36 0
BBX 31 46 2 -2
BITMAP
0000001E
001FE01C
007FF83C
01FFFE38
03F03F78
0F8007F0
0F0003E0
1E0001E0
3C0001F0
780003F8
700007B8
7000073C
E0000F1C
E0000E1C
E0001E1E
E0001C0E
E000380E
E000780E
E000700E
E000F00E
E000E00E
E001E00E
E003C00E
E003800E
E007800E
E007000E
E00F000E
E01E000E
E01C000E
E03C000E
E038000E
E078000E
E070001C
E0F0001C
71E0001C
71C0003C
7BC00038
3F800078
1F8000F0
1F0001E0
0F8007C0
1FF01F80
1DFFFF00
3CFFFC00
381FE000
70000000
ENDCHAR
STARTCHAR 00F9
ENCODING 249
SWIDTH 354 0
DWIDTH 34 0
BBX 29 56 2 0
BITMAP
001E0000
000E0000
000F0000
00078000
00038000
0003C000
0001C000
0001E000
00000000
00000000
00000000
00000000
E0000038
E0000038
E0000038
E0000038
E0000038
E0000038
E0000038
E0000038
E0000038
E0000038
E0000038
E0000038
E0000038
E0000038
E0000038
E0000038
E0000038
E0000038
E0000038
E0000038
E0000038
E0000038
E0000038
E0000038
E0000038
E0000038
E0000038
E0000038
E0000038
E0000038
E0000038
E0000078
E0000070
70000070
70000070
780000E0
3C0000E0
1E0001C0
1F0003C0
0F800780
07E01F00
01FFFE00
00FFF800
001FE000
ENDCHAR
STARTCHAR 00FA
ENCODING 250
SWIDTH 354 0
DWIDTH 34 0
BBX 29 56 2 0
BITMAP
0001E000
0001C000
0003C000
00038000
00078000
000F0000
000E0000
001E0000
00000000
00000000
00000000
00000000
E0000038
E0000038
E0000038
E0000038
E0000038
E0000038
E0000038
E0000038
E0000038
E0000038
E0000038
E0000038
E0000038
E0000038
E0000038
E0000038
E0000038
E0000038
E0000038
E0000038
E0000038
E0000038
E0000038
E0000038
E0000038
E0000038
E0000038
E0000038
E0000038
E0000038
E0000038
E0000078
E0000070
70000070
70000070
780000E0
3C0000E0
1E0001C0
1F0003C0
0F800780
07E01F00
01FFFE00
00FFF800
001FE000
ENDCHAR
STARTCHAR 00FB
ENCODING 251
SWIDTH 354 0
DWIDTH 34 0
BBX 29 58 2 0
BITMAP
000F8000
000FC000
001FE000
001DE000
003CF000
0038F000
00787800
00F07C00
00E03C00
01001E00
00000000
00000000
00000000
00000000
E0000038
E0000038
E0000038
E0000038
E0000038
E0000038
E0000038
E0000038
E0000038
E0000038
E0000038
E0000038
E0000038
E0000038
E0000038
E0000038
E0000038
E0000038
E0000038
E0000038
E0000038
E0000038
E0000038
E0000038
E0000038
E0000038
E0000038
E0000038
E0000038
E0000038
E0000038
E0000078
E0000070
70000070
70000070
780000E0
3C0000E0
1E0001C0
1F0003C0
0F800780
07E01F00
01FFFE00
00FFF800
001FE000
ENDCHAR
STARTCHAR 00FC
ENCODING 252
SWIDTH 354 0
DWIDTH 34 0
BBX 29 55 2 0
BITMAP
00F03C00
00F83E00
00F83E00
00F83E00
00F83E00
00F03C00
00000000
00000000
00000000
00000000
00000000
E0000038
E0000038
E0000038
E0000038
E0000038
E0000038
E0000038
E0000038
E0000038
E0000038
E0000038
E0000038
E0000038
E0000038
E0000038
E0000038
E0000038
E0000038
E0000038
E0000038
E0000038
E0000038
E0000038
E0000038
E0000038
E0000038
E0000038
E0000038
E0000038
E0000038
E0000038
E0000078
E0000070
70000070
70000070
780000E0
3C0000E0
1E0001C0
1F0003C0
0F800780
07E01F00
01FFFE00
00FFF800
001FE000
ENDCHAR
STARTCHAR 00FD
ENCODING 253
SWIDTH 375 0
DWIDTH 36 0
BBX 31 74 2 -18
BITMAP
0000F000
0000E000
0001E000
0003C000
00038000
00078000
00070000
000F0000
00000000
00000000
00000000
00000000
E000000E
E000000E
E000000E
E000000E
E000000E
E000000E
E000000E
E000000E
E000000E
E000000E
E000000E
E000000E
E000000E
E000000E
E000000E
E000000E
E000000E
E000000E
E000000E
E000000E
E000000E
E000000E
E000000E
E000000E
E000000E
E000000E
E000000E
E000000E
E000000E
E000000E
E000000E
E000001E
E000001E
7000001E
7000003E
7800003E
3C00007E
1E0000FE
1F0001EE
0F8007CE
07F01F8E
01FFFF0E
00FFFC0E
001FF00E
0000000E
0000000E
0000000E
E000000E
E000000E
E000001C
E000001C
F000001C
7000003C
78000038
38000078
3C0000F0
1F0001E0
0F8007C0
07F01F80
01FFFF00
00FFFC00
001FE000
ENDCHAR
STARTCHAR 00FE
ENCODING 254
SWIDTH 375 0
DWIDTH 36 0
BBX 31 62 2 -10
BITMAP
E0000000
E0000000
E0000000
E0000000
E0000000
E0000000
E0000000
E0000000
E0000000
E01FE000
E0FFFC00
E1FFFF00
E7F01F80
EF8007C0
FF0001E0
FE0000F0
FC000078
F8000038
F000003C
F000001C
E000001C
E000001C
E000000E
E000000E
E000000E
E000000E
E000000E
E000000E
E000000E
E000000E
E000000E
E000000E
E000000E
E000000E
E000000E
E000000E
E000000E
E000000E
E000000E
E000001E
E000001C
F000001C
F000003C
F8000038
FC000078
FE0000F0
FF0001E0
EF8007C0
E7F01F80
E3FFFF00
E0FFFC00
E01FF000
E0000000
E0000000
E0000000
E0000000
E0000000
E0000000
E0000000
E0000000
E0000000
E0000000
ENDCHAR
STARTCHAR 00FF
ENCODING 255
SWIDTH 375 0
DWIDTH 36 0
BBX 31 73 2 -18
BITMAP
00781E00
007C1F00
007C1F00
007C1F00
007C1F00
00781E00
00000000
00000000
00000000
00000000
00000000
E000000E
E000000E
E000000E
E000000E
E000000E
E000000E
E000000E
E000000E
E000000E
E000000E
E000000E
E000000E
E000000E
E000000E
E000000E
E000000E
E000000E
E000000E
E000000E
E000000E
E000000E
E000000E
E000000E
E000000E
E000000E
E000000E
E000000E
E000000E
E000000E
E000000E
E000000E
E000001E
E000001E
7000001E
7000003E
7800003E
3C00007E
1E0000FE
1F0001EE
0F8007CE
07F01F8E
01FFFF0E
00FFFC0E
001FF00E
0000000E
0000000E
0000000E
E000000E
E000000E
E000001C
E000001C
F000001C
7000003C
78000038
38000078
3C0000F0
1F0001E0
0F8007C0
07F01F80
01FFFF00
00FFFC00
001FE000
ENDCHAR
STARTCHAR 0152
ENCODING 338
SWIDTH 697 0
DWIDTH 67 0
BBX 64 62 2 0
BITMAP
001FFF00000FFFFF
00FFFFE0007FFFFF
01FFFFF001FFFFFF
07F000FC03F80000
0F80003E07C00000
1F00000F0F800000
3E0000079F000000
3C0000039E000000
78000001FC000000
70000001F8000000
F0000000F8000000
E0000000F0000000
E0000000F0000000
E000000070000000
E000000070000000
E000000070000000
E000000070000000
E000000070000000
E000000070000000
E000000070000000
E000000070000000
E000000070000000
E000000070000000
E000000070000000
E000000070000000
E000000070000000
E000000070000000
E000000070000000
E0000000700FFE00
E0000000707FFE00
E000000070FFFE00
E000000073F80000
E000000077C00000
E00000007F800000
E00000007F000000
E00000007E000000
E00000007C000000
E000000078000000
E000000078000000
E000000070000000
E000000070000000
E000000070000000
E000000070000000
E000000070000000
E000000070000000
E000000070000000
E000000070000000
E000000070000000
E000000070000000
E0000000F0000000
E0000000F0000000
70000000F0000000
70000001F0000000
78000001F0000000
3C000003F0000000
1E000007F0000000
1F00000F70000000
0F80003E70000000
07F000FC70000000
01FFFFF87FFFFFFF
007FFFE07FFFFFFF
001FFF007FFFFFFF
ENDCHAR
STARTCHAR 0153
ENCODING 339
SWIDTH 656 0
DWIDTH 63 0
BBX 59 44 2 0
BITMAP
001FE00000FE0000
007FFC0007FFC000
01FFFF001FFFF000
07F01F803F01F800
0F8007C078007C00
1F0001E0F0001E00
1E0000F1E0000F00
3C000073C0000700
7800003B80000780
7000003F00000380
7000001F000001C0
E000001E000001C0
E000001E000001C0
E000000E000000E0
E000000E000000E0
E000000E000000E0
E000000E000000E0
E000000E000000E0
E000000E01FFFFE0
E000000E0FFFFFE0
E000000E3FFFFFE0
E000000E7E000000
E000000EF8000000
E000000FE0000000
E000000FC0000000
E000000F80000000
E000000F80000000
E000000F00000000
E000000E000000E0
E000000E000000E0
E000000E000000E0
E000001E000001E0
E000001E000001C0
7000001E000001C0
7000003F000003C0
7800003F80000380
3C00007B80000780
1E0000F1C0000F00
1F0001E0E0001E00
0F8007C0F8007C00
07F01F803E01F800
01FFFF001FFFF000
00FFFC0007FFC000
001FE00001FE0000
ENDCHAR
STARTCHAR 0160
ENCODING 352
SWIDTH 416 0
DWIDTH 40 0
BBX 36 77 2 0
BITMAP
001C078000
001E078000
000E0F0000
000F1E0000
00079E0000
0007BC0000
0003F80000
0001F80000
0001F00000
0000000000
0000000000
0000000000
0000000000
0000000000
0000000000
001FFF0000
00FFFFE000
01FFFFF800
07F000FC00
0F80003E00
1F00000F00
3E00000780
3C000003C0
78000001C0
70000001E0
F0000000E0
E0000000E0
E0000000F0
E000000070
E000000070
E000000000
E000000000
E000000000
E000000000
E000000000
7000000000
7000000000
7800000000
3C00000000
3E00000000
1F00000000
0F80000000
07F0000000
01FFFF0000
00FFFFE000
001FFFF800
000000FC00
0000003E00
0000000F00
0000000780
00000003C0
00000001C0
00000001E0
00000000E0
00000000E0
00000000E0
0000000070
0000000070
0000000070
0000000070
0000000070
E000000070
E000000070
E000000070
E0000000F0
E0000000E0
70000000E0
70000001E0
78000001C0
3C000003C0
1E00000780
1F00000F00
0F80003E00
03F000FC00
01FFFFF800
007FFFE000
001FFF0000
ENDCHAR
STARTCHAR 0161
ENCODING 353
SWIDTH 322 0
DWIDTH 31 0
BBX 26 58 2 0
BITMAP
0780F000
03C1F000
03C1E000
01E3C000
00E3C000
00F78000
00770000
007F0000
003E0000
00000000
00000000
00000000
00000000
00000000
03FFF000
0FFFF800
1FFFFE00
3E001F00
78000F00
70000780
E0000380
E0000380
E00001C0
E00001C0
E0000000
E0000000
E0000000
E0000000
E0000000
F0000000
70000000
78000000
3E000000
1FFFF000
0FFFFC00
03FFFE00
00001F00
00000700
00000780
00000380
000001C0
000001C0
000001C0
000001C0
000001C0
000001C0
000001C0
000001C0
000001C0
E00001C0
E00001C0
E0000380
F0000780
78000700
3C001F00
1FFFFE00
0FFFFC00
03FFF000
ENDCHAR
STARTCHAR 0178
ENCODING 376
SWIDTH 406 0
DWIDTH 39 0
BBX 34 62 2 0
BITMAP
E0000001C0
E0000001C0
E0000001C0
E0000001C0
E0000001C0
E0000001C0
E0000001C0
E0000001C0
E0000001C0
E0000001C0
E0000001C0
E0000001C0
E0000001C0
E0000001C0
E0000001C0
E0000001C0
E0000001C0
E0000001C0
E0000001C0
E0000001C0
E0000001C0
E0000001C0
E0000001C0
E0000001C0
E0000001C0
E0000001C0
E0000003C0
E000000380
F000000780
7800000F00
3E00003F00
1FF007FE00
0FFC1FFC00
07FF3FE000
001F7C0000
0007F00000
0007E00000
0003C00000
0001C00000
0001C00000
0001C00000
0001C00000
0001C00000
0001C00000
0001C00000
0001C00000
0001C00000
0001C00000
0001C00000
0001C00000
0001C00000
0001C00000
0001C00000
0001C00000
0001C00000
0001C00000
0001C00000
0001C00000
0001C00000
0001C00000
0001C00000
0001C00000
ENDCHAR
STARTCHAR 02C6
ENCODING 710
SWIDTH 322 0
DWIDTH 31 0
BBX 15 10 12 56
BITMAP
07C0
07E0
0FE0
0EF0
1CF0
1C78
387C
783C
701E
F01E
ENDCHAR
STARTCHAR 02DC
ENCODING 732
SWIDTH 322 0
DWIDTH 31 0
BBX 25 6 3 58
BITMAP
0003F000
E00FFC00
F03FFE00
FFFC1F00
3FF80780
0FC00200
ENDCHAR
STARTCHAR 03BC
ENCODING 956
SWIDTH 354 0
DWIDTH 34 0
BBX 29 62 2 -18
BITMAP
E0000038
E0000038
E0000038
E0000038
E0000038
E0000038
E0000038
E0000038
E0000038
E0000038
E0000038
E0000038
E0000038
E0000038
E0000038
E0000038
E0000038
E0000038
E0000038
E0000038
E0000038
E0000038
E0000038
E0000038
E0000038
E0000038
E0000038
E0000038
E0000038
E0000038
E0000038
E0000070
F0000070
F0000070
F80000F0
FC0000E0
FE0001E0
FF0003C0
EF8007C0
E7E01FE0
E3FFFEF8
E0FFF878
E01FE038
E0000000
E0000000
E0000000
E0000000
E0000000
E0000000
E0000000
E0000000
E0000000
E0000000
E0000000
E0000000
E0000000
E0000000
E0000000
E0000000
E0000000
E0000000
E0000000
ENDCHAR
STARTCHAR 2010
ENCODING 8208
SWIDTH 468 0
DWIDTH 45 0
BBX 40 16 2 23
BITMAP
E000000007
E000000007
E00000000F
F00000000E
780000001E
7C0000007C
3FFFFFFFF8
1FFFFFFFF0
1FFFFFFFF0
3E00000078
780000003C
700000001E
F00000000E
E00000000E
E000000007
E000000007
ENDCHAR
STARTCHAR 2013
ENCODING 8211
SWIDTH 520 0
DWIDTH 50 0
BBX 53 16 -2 23
BITMAP
E0000000000038
E0000000000038
70000000000038
70000000000078
780000000000F0
3E0000000001F0
1FFFFFFFFFFFE0
0FFFFFFFFFFFC0
0FFFFFFFFFFFC0
1E0000000003E0
3C0000000000F0
78000000000070
70000000000078
F0000000000038
E0000000000038
E0000000000038
ENDCHAR
STARTCHAR 2014
ENCODING 8212
SWIDTH 697 0
DWIDTH 67 0
BBX 70 16 -2 23
BITMAP
E0000000000000001C
E0000000000000001C
70000000000000001C
70000000000000003C
780000000000000078
3E00000000000000F8
1FFFFFFFFFFFFFFFF0
0FFFFFFFFFFFFFFFE0
0FFFFFFFFFFFFFFFE0
1E00000000000001F0
3C0000000000000078
780000000000000038
70000000000000003C
F0000000000000001C
E0000000000000001C
E0000000000000001C
ENDCHAR
STARTCHAR 2018
ENCODING 8216
SWIDTH 125 0
DWIDTH 12 0
BBX 7 14 2 48
BITMAP
0C
1C
3E
78
F0
F0
E0
E0
F8
FC
FE
FE
7C
3C
ENDCHAR
STARTCHAR 2019
ENCODING 8217
SWIDTH 125 0
DWIDTH 12 0
BBX 7 14 2 48
BITMAP
78
FC
FC
FC
FC
7E
1E
1C
1C
3C
78
F8
70
40
ENDCHAR
STARTCHAR 201A
ENCODING 8218
SWIDTH 125 0
DWIDTH 12 0
BBX 7 14 2 -8
BITMAP
78
F8
FC
FC
FC
7E
1E
1C
1C
3C
78
F8
70
40
ENDCHAR
STARTCHAR 201C
ENCODING 8220
SWIDTH 218 0
DWIDTH 21 0
BBX 16 14 2 47
BITMAP
0C06
1C0E
3E1F
783C
F078
F078
E070
E070
F87C
FC7E
FE7F
FE7F
7C3E
3C1E
ENDCHAR
STARTCHAR 201D
ENCODING 8221
SWIDTH 218 0
DWIDTH 21 0
BBX 16 14 2 48
BITMAP
783C
FC7C
FC7E
FC7E
FC7E
7E3F
1E0E
1C0E
1C0E
3C1E
783C
F87C
7078
4020
ENDCHAR
STARTCHAR 201E
ENCODING 8222
SWIDTH 218 0
DWIDTH 21 0
BBX 17 14 2 -8
BITMAP
781E00
F81F00
FC3F80
FC3F80
FC1F80
7E0F80
1E0380
1C0380
1C0780
3C0700
780F00
F81E00
701C00
400800
ENDCHAR
STARTCHAR 2020
ENCODING 8224
SWIDTH 208 0
DWIDTH 20 0
BBX 15 62 2 -4
BITMAP
0380
0380
0380
0380
0380
0780
07C0
0FC0
1EF0
FCFE
F83E
FC7E
FEFC
1FE0
0FC0
07C0
0780
0380
0380
0380
0380
0380
0380
0380
0380
0380
0380
0380
0380
0380
0380
0380
0380
0380
0380
0380
0380
0380
0380
0380
0380
0380
0380
0380
0380
0380
0380
0380
0380
0380
0380
0380
0380
0380
0380
0380
0380
0380
0380
0380
0380
0380
ENDCHAR
STARTCHAR 2021
ENCODING 8225
SWIDTH 197 0
DWIDTH 19 0
BBX 16 62 1 -4
BITMAP
01C0
01C0
01C0
01C0
01C0
01E0
03E0
07F0
0F78
FE3F
FC1F
FE3F
7F7F
0FF8
03F0
03E0
01E0
01C0
01C0
01C0
01C0
01C0
01C0
01C0
01C0
01C0
01C0
01C0
01C0
01C0
01C0
01C0
01C0
01C0
01C0
01C0
01C0
01C0
01C0
01C0
01C0
01C0
01C0
01C0
01C0
01E0
03E0
03F0
0FF8
7E7E
FC3F
FC3F
FE7F
1FF8
0FE0
07C0
03C0
0380
0380
0380
0380
0380
ENDCHAR
STARTCHAR 2026
ENCODING 8230
SWIDTH 458 0
DWIDTH 44 0
BBX 41 6 2 0
BITMAP
F0003C000F00
F8003E000F80
F8003E000F80
F8003E000F80
F8003E000F80
F0003C000F00
ENDCHAR
STARTCHAR 2030
ENCODING 8240
SWIDTH 1072 0
DWIDTH 103 0
BBX 98 62 2 0
BITMAP
001FE0000001C0000000000000
00FFFC000003C0000000000000
01FFFF00000380000000000000
07F01F80000780000000000000
0F8007C0000700000000000000
1F0001E0000F00000000000000
1E0000F0001E00000000000000
3C000078001C00000000000000
78000038003C00000000000000
7000003C003800000000000000
7000001C007800000000000000
E000001C007000000000000000
E000001C00F000000000000000
E000000E01E000000000000000
E000000E01C000000000000000
E000000E03C000000000000000
E000000E038000000000000000
E000000E078000000000000000
E000001E070000000000000000
E000001C0E0000000000000000
F000001C1E0000000000000000
7000003C1C0000000000000000
780000383C0000000000000000
3C000078380000000000000000
3E0000F0780000000000000000
1F0001E0F00000000000000000
0F8007C0E00000000000000000
07F01F81E00000000000000000
01FFFF01C00000000000000000
00FFFC03C00000000000000000
001FF003800000000000000000
00000007000FF0000003FE0000
0000000F007FFE00001FFF8000
0000000E00FFFF80003FFFE000
0000001E03F80FC000FE03F000
0000001C07C003E001F000F800
0000003C0F8000F003E0003C00
000000781F00007803C0001E00
000000701E00003C0780000F00
000000F03C00001C0F00000700
000000E03800001E0E00000780
000001E07800000E0E00000380
000001C07000000E1C00000380
000003C07000000F1C000003C0
00000780700000071C000001C0
00000700700000071C000001C0
00000F00700000071C000001C0
00000E00700000071C000001C0
00001E00700000071C000001C0
00001C007000000F1C00000380
000038007000000E1C00000380
000078007800000E1E00000380
000070003800001E0E00000780
0000F0003C00001C0F00000700
0000E0001E00003C0780000F00
0001E0000F00007803C0001E00
0003C0000F8000F003E0003C00
0003800007C003E001F000F800
0007800003F80FC000FE03F000
0007000000FFFF80003FFFE000
000F0000007FFE00001FFF8000
000E0000000FF0000003FC0000
ENDCHAR
STARTCHAR 2074
ENCODING 8308
SWIDTH 302 0
DWIDTH 29 0
BBX 26 38 2 24
BITMAP
00380000
00380000
00780000
00700000
00700000
00F00000
00E00000
00E00000
01C00000
01C00000
03C00000
03800000
03800000
07800000
07000000
07000000
0E000000
0E070000
0E070000
1C070000
1C070000
3C070000
3BE70000
3FF70080
7C3F01C0
780F0780
7007FF00
E007FC00
00070000
00070000
00070000
00070000
00070000
00070000
00070000
00070000
00070000
00070000
ENDCHAR
STARTCHAR 2122
ENCODING 8482
SWIDTH 614 0
DWIDTH 59 0
BBX 55 27 2 18
BITMAP
07800020000000
3FFC0070000000
7C3F00F0000000
E003FFC0000000
4003FF00000000
0003803F807FC0
000380FFF0FFF0
000381E079E078
000383801F801C
000387001F001E
00038E000E000E
00038E000E000E
00038E000E000E
00038E000E000E
00038E000E000E
00038E000E000E
00038E000E000E
00038E000E000E
00038E000E000E
00038E000E000E
00038E000E000E
00038E000E000E
00038E000E000E
00038E000E000E
00038E000E000E
00038E000E000E
00038E000E000E
ENDCHAR
STARTCHAR 2212
ENCODING 8722
SWIDTH 395 0
DWIDTH 38 0
BBX 33 3 2 26
BITMAP
FFFFFFFF80
FFFFFFFF80
FFFFFFFF80
ENDCHAR
ENDFONT
